<mxfile host="app.diagrams.net" modified="2023-11-02T11:21:09.888Z" agent="Mozilla/5.0 (Windows NT 10.0; Win64; x64) AppleWebKit/537.36 (KHTML, like Gecko) Chrome/118.0.0.0 Safari/537.36 Edg/118.0.2088.76" etag="k7S6IPpKrc_4NVYG71NR" version="22.0.8" type="github" pages="5">
  <diagram name="SystolicArray" id="_0fA7uI4Y7OeELXTkgqh">
    <mxGraphModel dx="666" dy="469" grid="1" gridSize="10" guides="1" tooltips="1" connect="1" arrows="1" fold="1" page="1" pageScale="1" pageWidth="850" pageHeight="1100" math="0" shadow="0">
      <root>
        <mxCell id="0" />
        <mxCell id="1" parent="0" />
        <mxCell id="udaQH2-dt-T3eGOm7zWn-2" value="" style="endArrow=none;html=1;rounded=0;fillColor=#f8cecc;strokeColor=#b85450;strokeWidth=5;" edge="1" parent="1">
          <mxGeometry width="50" height="50" relative="1" as="geometry">
            <mxPoint x="260" y="360" as="sourcePoint" />
            <mxPoint x="340" y="360" as="targetPoint" />
          </mxGeometry>
        </mxCell>
        <mxCell id="udaQH2-dt-T3eGOm7zWn-3" value="" style="endArrow=none;html=1;rounded=0;strokeWidth=5;fillColor=#ffe6cc;strokeColor=#d79b00;" edge="1" parent="1">
          <mxGeometry width="50" height="50" relative="1" as="geometry">
            <mxPoint x="260" y="440" as="sourcePoint" />
            <mxPoint x="340" y="440" as="targetPoint" />
          </mxGeometry>
        </mxCell>
        <mxCell id="udaQH2-dt-T3eGOm7zWn-4" value="" style="endArrow=none;html=1;rounded=0;strokeWidth=5;fillColor=#dae8fc;strokeColor=#6c8ebf;" edge="1" parent="1">
          <mxGeometry width="50" height="50" relative="1" as="geometry">
            <mxPoint x="260" y="440" as="sourcePoint" />
            <mxPoint x="260" y="360" as="targetPoint" />
          </mxGeometry>
        </mxCell>
        <mxCell id="udaQH2-dt-T3eGOm7zWn-5" value="" style="endArrow=none;html=1;rounded=0;strokeWidth=5;fillColor=#d5e8d4;strokeColor=#82b366;" edge="1" parent="1">
          <mxGeometry width="50" height="50" relative="1" as="geometry">
            <mxPoint x="340" y="440" as="sourcePoint" />
            <mxPoint x="340" y="360" as="targetPoint" />
          </mxGeometry>
        </mxCell>
        <mxCell id="udaQH2-dt-T3eGOm7zWn-10" value="" style="endArrow=none;html=1;rounded=0;strokeWidth=5;fillColor=#d5e8d4;strokeColor=#82b366;" edge="1" parent="1">
          <mxGeometry width="50" height="50" relative="1" as="geometry">
            <mxPoint x="380" y="440" as="sourcePoint" />
            <mxPoint x="380" y="360" as="targetPoint" />
          </mxGeometry>
        </mxCell>
        <mxCell id="udaQH2-dt-T3eGOm7zWn-11" value="" style="endArrow=none;html=1;rounded=0;strokeWidth=5;fillColor=#ffe6cc;strokeColor=#d79b00;" edge="1" parent="1">
          <mxGeometry width="50" height="50" relative="1" as="geometry">
            <mxPoint x="380" y="350" as="sourcePoint" />
            <mxPoint x="460" y="350" as="targetPoint" />
          </mxGeometry>
        </mxCell>
        <mxCell id="udaQH2-dt-T3eGOm7zWn-12" value="" style="endArrow=classic;html=1;rounded=0;strokeWidth=2;" edge="1" parent="1">
          <mxGeometry width="50" height="50" relative="1" as="geometry">
            <mxPoint x="380" y="400" as="sourcePoint" />
            <mxPoint x="410" y="400" as="targetPoint" />
          </mxGeometry>
        </mxCell>
        <mxCell id="udaQH2-dt-T3eGOm7zWn-13" value="" style="endArrow=classic;html=1;rounded=0;strokeWidth=2;" edge="1" parent="1">
          <mxGeometry width="50" height="50" relative="1" as="geometry">
            <mxPoint x="420" y="350" as="sourcePoint" />
            <mxPoint x="420" y="380" as="targetPoint" />
          </mxGeometry>
        </mxCell>
        <mxCell id="CiaDxK5j0RdbnZbTILFE-1" value="" style="endArrow=none;html=1;rounded=0;fillColor=#f8cecc;strokeColor=#b85450;strokeWidth=5;" edge="1" parent="1">
          <mxGeometry width="50" height="50" relative="1" as="geometry">
            <mxPoint x="380" y="230" as="sourcePoint" />
            <mxPoint x="460" y="230" as="targetPoint" />
          </mxGeometry>
        </mxCell>
        <mxCell id="CiaDxK5j0RdbnZbTILFE-2" value="" style="endArrow=none;html=1;rounded=0;strokeWidth=5;fillColor=#ffe6cc;strokeColor=#d79b00;" edge="1" parent="1">
          <mxGeometry width="50" height="50" relative="1" as="geometry">
            <mxPoint x="380" y="310" as="sourcePoint" />
            <mxPoint x="460" y="310" as="targetPoint" />
          </mxGeometry>
        </mxCell>
        <mxCell id="CiaDxK5j0RdbnZbTILFE-3" value="" style="endArrow=none;html=1;rounded=0;strokeWidth=5;fillColor=#dae8fc;strokeColor=#6c8ebf;" edge="1" parent="1">
          <mxGeometry width="50" height="50" relative="1" as="geometry">
            <mxPoint x="380" y="310" as="sourcePoint" />
            <mxPoint x="380" y="230" as="targetPoint" />
          </mxGeometry>
        </mxCell>
        <mxCell id="CiaDxK5j0RdbnZbTILFE-4" value="" style="endArrow=none;html=1;rounded=0;strokeWidth=5;fillColor=#d5e8d4;strokeColor=#82b366;" edge="1" parent="1">
          <mxGeometry width="50" height="50" relative="1" as="geometry">
            <mxPoint x="460" y="310" as="sourcePoint" />
            <mxPoint x="460" y="230" as="targetPoint" />
          </mxGeometry>
        </mxCell>
      </root>
    </mxGraphModel>
  </diagram>
  <diagram id="TCrnNvOpN0uda4-RqeIG" name="Transpose">
    <mxGraphModel dx="666" dy="469" grid="1" gridSize="10" guides="1" tooltips="1" connect="1" arrows="1" fold="1" page="1" pageScale="1" pageWidth="850" pageHeight="1100" math="0" shadow="0">
      <root>
        <mxCell id="0" />
        <mxCell id="1" parent="0" />
        <mxCell id="F1uLLLbTjQi2H1f-FO4v-1" value="" style="endArrow=none;html=1;rounded=0;fillColor=#f8cecc;strokeColor=#b85450;strokeWidth=5;" edge="1" parent="1">
          <mxGeometry width="50" height="50" relative="1" as="geometry">
            <mxPoint x="220" y="469" as="sourcePoint" />
            <mxPoint x="300" y="469" as="targetPoint" />
          </mxGeometry>
        </mxCell>
        <mxCell id="F1uLLLbTjQi2H1f-FO4v-2" value="" style="endArrow=none;html=1;rounded=0;strokeWidth=5;fillColor=#ffe6cc;strokeColor=#d79b00;" edge="1" parent="1">
          <mxGeometry width="50" height="50" relative="1" as="geometry">
            <mxPoint x="220" y="549" as="sourcePoint" />
            <mxPoint x="300" y="549" as="targetPoint" />
          </mxGeometry>
        </mxCell>
        <mxCell id="F1uLLLbTjQi2H1f-FO4v-3" value="" style="endArrow=none;html=1;rounded=0;strokeWidth=5;fillColor=#dae8fc;strokeColor=#6c8ebf;" edge="1" parent="1">
          <mxGeometry width="50" height="50" relative="1" as="geometry">
            <mxPoint x="220" y="549" as="sourcePoint" />
            <mxPoint x="220" y="469" as="targetPoint" />
          </mxGeometry>
        </mxCell>
        <mxCell id="F1uLLLbTjQi2H1f-FO4v-4" value="" style="endArrow=none;html=1;rounded=0;strokeWidth=5;fillColor=#d5e8d4;strokeColor=#82b366;" edge="1" parent="1">
          <mxGeometry width="50" height="50" relative="1" as="geometry">
            <mxPoint x="300" y="549" as="sourcePoint" />
            <mxPoint x="300" y="469" as="targetPoint" />
          </mxGeometry>
        </mxCell>
        <mxCell id="F1uLLLbTjQi2H1f-FO4v-5" value="" style="endArrow=none;html=1;rounded=0;fillColor=#dae8fc;strokeColor=#6c8ebf;strokeWidth=5;" edge="1" parent="1">
          <mxGeometry width="50" height="50" relative="1" as="geometry">
            <mxPoint x="400" y="469" as="sourcePoint" />
            <mxPoint x="480" y="469" as="targetPoint" />
          </mxGeometry>
        </mxCell>
        <mxCell id="F1uLLLbTjQi2H1f-FO4v-6" value="" style="endArrow=none;html=1;rounded=0;strokeWidth=5;fillColor=#d5e8d4;strokeColor=#82b366;" edge="1" parent="1">
          <mxGeometry width="50" height="50" relative="1" as="geometry">
            <mxPoint x="400" y="549" as="sourcePoint" />
            <mxPoint x="480" y="549" as="targetPoint" />
          </mxGeometry>
        </mxCell>
        <mxCell id="F1uLLLbTjQi2H1f-FO4v-7" value="" style="endArrow=none;html=1;rounded=0;strokeWidth=5;fillColor=#f8cecc;strokeColor=#b85450;" edge="1" parent="1">
          <mxGeometry width="50" height="50" relative="1" as="geometry">
            <mxPoint x="400" y="549" as="sourcePoint" />
            <mxPoint x="400" y="469" as="targetPoint" />
          </mxGeometry>
        </mxCell>
        <mxCell id="F1uLLLbTjQi2H1f-FO4v-8" value="" style="endArrow=none;html=1;rounded=0;strokeWidth=5;fillColor=#ffe6cc;strokeColor=#d79b00;" edge="1" parent="1">
          <mxGeometry width="50" height="50" relative="1" as="geometry">
            <mxPoint x="480" y="549" as="sourcePoint" />
            <mxPoint x="480" y="469" as="targetPoint" />
          </mxGeometry>
        </mxCell>
        <mxCell id="MoMgpRwecLy2gWnf3JeH-1" value="" style="endArrow=classic;html=1;rounded=0;" edge="1" parent="1">
          <mxGeometry width="50" height="50" relative="1" as="geometry">
            <mxPoint x="330" y="510" as="sourcePoint" />
            <mxPoint x="370" y="510" as="targetPoint" />
          </mxGeometry>
        </mxCell>
        <mxCell id="MoMgpRwecLy2gWnf3JeH-2" value="Transpose" style="text;html=1;strokeColor=none;fillColor=none;align=center;verticalAlign=middle;whiteSpace=wrap;rounded=0;" vertex="1" parent="1">
          <mxGeometry x="320" y="480" width="60" height="30" as="geometry" />
        </mxCell>
        <mxCell id="2hMZ2ny4J0sNVfpHZ9jO-1" value="" style="endArrow=none;html=1;rounded=0;fillColor=#f8cecc;strokeColor=#b85450;strokeWidth=5;" edge="1" parent="1">
          <mxGeometry width="50" height="50" relative="1" as="geometry">
            <mxPoint x="280" y="590" as="sourcePoint" />
            <mxPoint x="360" y="590" as="targetPoint" />
          </mxGeometry>
        </mxCell>
        <mxCell id="2hMZ2ny4J0sNVfpHZ9jO-2" value="" style="endArrow=none;html=1;rounded=0;strokeWidth=5;fillColor=#ffe6cc;strokeColor=#d79b00;" edge="1" parent="1">
          <mxGeometry width="50" height="50" relative="1" as="geometry">
            <mxPoint x="280" y="670" as="sourcePoint" />
            <mxPoint x="360" y="670" as="targetPoint" />
          </mxGeometry>
        </mxCell>
        <mxCell id="2hMZ2ny4J0sNVfpHZ9jO-3" value="" style="endArrow=none;html=1;rounded=0;strokeWidth=5;fillColor=#dae8fc;strokeColor=#6c8ebf;" edge="1" parent="1">
          <mxGeometry width="50" height="50" relative="1" as="geometry">
            <mxPoint x="280" y="670" as="sourcePoint" />
            <mxPoint x="280" y="590" as="targetPoint" />
          </mxGeometry>
        </mxCell>
        <mxCell id="2hMZ2ny4J0sNVfpHZ9jO-4" value="" style="endArrow=none;html=1;rounded=0;strokeWidth=5;fillColor=#d5e8d4;strokeColor=#82b366;" edge="1" parent="1">
          <mxGeometry width="50" height="50" relative="1" as="geometry">
            <mxPoint x="360" y="670" as="sourcePoint" />
            <mxPoint x="360" y="590" as="targetPoint" />
          </mxGeometry>
        </mxCell>
        <mxCell id="2ZzJQaAyxBzxtaQIhgFP-1" value="" style="endArrow=none;html=1;rounded=0;strokeWidth=5;fillColor=#d5e8d4;strokeColor=#82b366;" edge="1" parent="1">
          <mxGeometry width="50" height="50" relative="1" as="geometry">
            <mxPoint x="390" y="670" as="sourcePoint" />
            <mxPoint x="390" y="590" as="targetPoint" />
          </mxGeometry>
        </mxCell>
        <mxCell id="2ZzJQaAyxBzxtaQIhgFP-2" value="" style="endArrow=none;html=1;rounded=0;strokeWidth=5;fillColor=#d5e8d4;strokeColor=#82b366;" edge="1" parent="1">
          <mxGeometry width="50" height="50" relative="1" as="geometry">
            <mxPoint x="400" y="580" as="sourcePoint" />
            <mxPoint x="480" y="580" as="targetPoint" />
          </mxGeometry>
        </mxCell>
        <mxCell id="kbmnMQV1_0hTl4MPZNrr-1" value="" style="endArrow=classic;html=1;rounded=0;strokeWidth=2;" edge="1" parent="1">
          <mxGeometry width="50" height="50" relative="1" as="geometry">
            <mxPoint x="390" y="630" as="sourcePoint" />
            <mxPoint x="420" y="630" as="targetPoint" />
          </mxGeometry>
        </mxCell>
        <mxCell id="XdVxFYBZ0g8K1tq4d0Mr-1" value="" style="endArrow=classic;html=1;rounded=0;strokeWidth=2;" edge="1" parent="1">
          <mxGeometry width="50" height="50" relative="1" as="geometry">
            <mxPoint x="440" y="580" as="sourcePoint" />
            <mxPoint x="440" y="610" as="targetPoint" />
          </mxGeometry>
        </mxCell>
      </root>
    </mxGraphModel>
  </diagram>
  <diagram id="Z15te4KDYdfb_OWStYae" name="SystolicFlow">
    <mxGraphModel dx="972" dy="684" grid="1" gridSize="10" guides="1" tooltips="1" connect="1" arrows="1" fold="1" page="1" pageScale="1" pageWidth="850" pageHeight="1100" math="0" shadow="0">
      <root>
        <mxCell id="0" />
        <mxCell id="1" parent="0" />
        <mxCell id="45oBi3vn5nIiIgX2RiwL-40" style="edgeStyle=orthogonalEdgeStyle;rounded=0;orthogonalLoop=1;jettySize=auto;html=1;entryX=0;entryY=0.5;entryDx=0;entryDy=0;" edge="1" parent="1" source="45oBi3vn5nIiIgX2RiwL-1" target="45oBi3vn5nIiIgX2RiwL-4">
          <mxGeometry relative="1" as="geometry" />
        </mxCell>
        <mxCell id="45oBi3vn5nIiIgX2RiwL-1" value="Systolic Array" style="whiteSpace=wrap;html=1;aspect=fixed;" vertex="1" parent="1">
          <mxGeometry x="360" y="340" width="80" height="80" as="geometry" />
        </mxCell>
        <mxCell id="45oBi3vn5nIiIgX2RiwL-5" style="edgeStyle=orthogonalEdgeStyle;rounded=0;orthogonalLoop=1;jettySize=auto;html=1;entryX=0;entryY=0.5;entryDx=0;entryDy=0;" edge="1" parent="1" source="45oBi3vn5nIiIgX2RiwL-2" target="45oBi3vn5nIiIgX2RiwL-1">
          <mxGeometry relative="1" as="geometry" />
        </mxCell>
        <mxCell id="45oBi3vn5nIiIgX2RiwL-39" style="edgeStyle=orthogonalEdgeStyle;rounded=0;orthogonalLoop=1;jettySize=auto;html=1;" edge="1" parent="1" target="45oBi3vn5nIiIgX2RiwL-2">
          <mxGeometry relative="1" as="geometry">
            <mxPoint x="40" y="380" as="sourcePoint" />
          </mxGeometry>
        </mxCell>
        <mxCell id="45oBi3vn5nIiIgX2RiwL-2" value="Sender A" style="whiteSpace=wrap;html=1;aspect=fixed;" vertex="1" parent="1">
          <mxGeometry x="150" y="340" width="80" height="80" as="geometry" />
        </mxCell>
        <mxCell id="45oBi3vn5nIiIgX2RiwL-6" style="edgeStyle=orthogonalEdgeStyle;rounded=0;orthogonalLoop=1;jettySize=auto;html=1;entryX=0.5;entryY=0;entryDx=0;entryDy=0;" edge="1" parent="1" source="45oBi3vn5nIiIgX2RiwL-3" target="45oBi3vn5nIiIgX2RiwL-1">
          <mxGeometry relative="1" as="geometry" />
        </mxCell>
        <mxCell id="id1_gUrzKkzGW-O8Wt1E-1" style="edgeStyle=orthogonalEdgeStyle;rounded=0;orthogonalLoop=1;jettySize=auto;html=1;" edge="1" parent="1" target="45oBi3vn5nIiIgX2RiwL-3">
          <mxGeometry relative="1" as="geometry">
            <mxPoint x="400" y="140" as="sourcePoint" />
          </mxGeometry>
        </mxCell>
        <mxCell id="45oBi3vn5nIiIgX2RiwL-3" value="Sender B" style="whiteSpace=wrap;html=1;aspect=fixed;" vertex="1" parent="1">
          <mxGeometry x="360" y="210" width="80" height="80" as="geometry" />
        </mxCell>
        <mxCell id="45oBi3vn5nIiIgX2RiwL-41" style="edgeStyle=orthogonalEdgeStyle;rounded=0;orthogonalLoop=1;jettySize=auto;html=1;" edge="1" parent="1" source="45oBi3vn5nIiIgX2RiwL-4">
          <mxGeometry relative="1" as="geometry">
            <mxPoint x="680" y="380" as="targetPoint" />
          </mxGeometry>
        </mxCell>
        <mxCell id="45oBi3vn5nIiIgX2RiwL-4" value="Reader" style="whiteSpace=wrap;html=1;aspect=fixed;" vertex="1" parent="1">
          <mxGeometry x="500" y="340" width="80" height="80" as="geometry" />
        </mxCell>
        <mxCell id="45oBi3vn5nIiIgX2RiwL-7" value="" style="shape=table;startSize=0;container=1;collapsible=0;childLayout=tableLayout;fontSize=16;swimlaneFillColor=none;fillColor=#f5f5f5;fontColor=#333333;strokeColor=#000000;strokeWidth=1;swimlaneLine=1;" vertex="1" parent="1">
          <mxGeometry x="80" y="300" width="50" height="50" as="geometry" />
        </mxCell>
        <mxCell id="45oBi3vn5nIiIgX2RiwL-8" value="" style="shape=tableRow;horizontal=0;startSize=0;swimlaneHead=0;swimlaneBody=0;strokeColor=#000000;top=0;left=0;bottom=0;right=0;collapsible=0;dropTarget=0;fillColor=none;points=[[0,0.5],[1,0.5]];portConstraint=eastwest;fontSize=16;swimlaneFillColor=none;strokeWidth=1;swimlaneLine=1;" vertex="1" parent="45oBi3vn5nIiIgX2RiwL-7">
          <mxGeometry width="50" height="17" as="geometry" />
        </mxCell>
        <mxCell id="45oBi3vn5nIiIgX2RiwL-9" value="" style="shape=partialRectangle;html=1;whiteSpace=wrap;connectable=0;strokeColor=#000000;overflow=hidden;fillColor=#dae8fc;top=0;left=0;bottom=0;right=0;pointerEvents=1;fontSize=16;swimlaneFillColor=none;strokeWidth=1;swimlaneLine=1;" vertex="1" parent="45oBi3vn5nIiIgX2RiwL-8">
          <mxGeometry width="17" height="17" as="geometry">
            <mxRectangle width="17" height="17" as="alternateBounds" />
          </mxGeometry>
        </mxCell>
        <mxCell id="45oBi3vn5nIiIgX2RiwL-10" value="" style="shape=partialRectangle;html=1;whiteSpace=wrap;connectable=0;strokeColor=#000000;overflow=hidden;fillColor=#dae8fc;top=0;left=0;bottom=0;right=0;pointerEvents=1;fontSize=16;swimlaneFillColor=none;strokeWidth=1;swimlaneLine=1;" vertex="1" parent="45oBi3vn5nIiIgX2RiwL-8">
          <mxGeometry x="17" width="16" height="17" as="geometry">
            <mxRectangle width="16" height="17" as="alternateBounds" />
          </mxGeometry>
        </mxCell>
        <mxCell id="45oBi3vn5nIiIgX2RiwL-11" value="" style="shape=partialRectangle;html=1;whiteSpace=wrap;connectable=0;strokeColor=#000000;overflow=hidden;fillColor=#dae8fc;top=0;left=0;bottom=0;right=0;pointerEvents=1;fontSize=16;swimlaneFillColor=none;strokeWidth=1;swimlaneLine=1;" vertex="1" parent="45oBi3vn5nIiIgX2RiwL-8">
          <mxGeometry x="33" width="17" height="17" as="geometry">
            <mxRectangle width="17" height="17" as="alternateBounds" />
          </mxGeometry>
        </mxCell>
        <mxCell id="45oBi3vn5nIiIgX2RiwL-12" value="" style="shape=tableRow;horizontal=0;startSize=0;swimlaneHead=0;swimlaneBody=0;strokeColor=#000000;top=0;left=0;bottom=0;right=0;collapsible=0;dropTarget=0;fillColor=none;points=[[0,0.5],[1,0.5]];portConstraint=eastwest;fontSize=16;swimlaneFillColor=none;strokeWidth=1;swimlaneLine=1;" vertex="1" parent="45oBi3vn5nIiIgX2RiwL-7">
          <mxGeometry y="17" width="50" height="16" as="geometry" />
        </mxCell>
        <mxCell id="45oBi3vn5nIiIgX2RiwL-13" value="" style="shape=partialRectangle;html=1;whiteSpace=wrap;connectable=0;strokeColor=#000000;overflow=hidden;fillColor=#dae8fc;top=0;left=0;bottom=0;right=0;pointerEvents=1;fontSize=16;swimlaneFillColor=none;strokeWidth=1;swimlaneLine=1;" vertex="1" parent="45oBi3vn5nIiIgX2RiwL-12">
          <mxGeometry width="17" height="16" as="geometry">
            <mxRectangle width="17" height="16" as="alternateBounds" />
          </mxGeometry>
        </mxCell>
        <mxCell id="45oBi3vn5nIiIgX2RiwL-14" value="" style="shape=partialRectangle;html=1;whiteSpace=wrap;connectable=0;strokeColor=#000000;overflow=hidden;fillColor=#dae8fc;top=0;left=0;bottom=0;right=0;pointerEvents=1;fontSize=16;swimlaneFillColor=none;strokeWidth=1;swimlaneLine=1;" vertex="1" parent="45oBi3vn5nIiIgX2RiwL-12">
          <mxGeometry x="17" width="16" height="16" as="geometry">
            <mxRectangle width="16" height="16" as="alternateBounds" />
          </mxGeometry>
        </mxCell>
        <mxCell id="45oBi3vn5nIiIgX2RiwL-15" value="" style="shape=partialRectangle;html=1;whiteSpace=wrap;connectable=0;strokeColor=#000000;overflow=hidden;fillColor=#dae8fc;top=0;left=0;bottom=0;right=0;pointerEvents=1;fontSize=16;swimlaneFillColor=none;strokeWidth=1;swimlaneLine=1;" vertex="1" parent="45oBi3vn5nIiIgX2RiwL-12">
          <mxGeometry x="33" width="17" height="16" as="geometry">
            <mxRectangle width="17" height="16" as="alternateBounds" />
          </mxGeometry>
        </mxCell>
        <mxCell id="45oBi3vn5nIiIgX2RiwL-16" value="" style="shape=tableRow;horizontal=0;startSize=0;swimlaneHead=0;swimlaneBody=0;strokeColor=#000000;top=0;left=0;bottom=0;right=0;collapsible=0;dropTarget=0;fillColor=none;points=[[0,0.5],[1,0.5]];portConstraint=eastwest;fontSize=16;swimlaneFillColor=none;strokeWidth=1;swimlaneLine=1;" vertex="1" parent="45oBi3vn5nIiIgX2RiwL-7">
          <mxGeometry y="33" width="50" height="17" as="geometry" />
        </mxCell>
        <mxCell id="45oBi3vn5nIiIgX2RiwL-17" value="" style="shape=partialRectangle;html=1;whiteSpace=wrap;connectable=0;strokeColor=#000000;overflow=hidden;fillColor=#dae8fc;top=0;left=0;bottom=0;right=0;pointerEvents=1;fontSize=16;swimlaneFillColor=none;strokeWidth=1;swimlaneLine=1;" vertex="1" parent="45oBi3vn5nIiIgX2RiwL-16">
          <mxGeometry width="17" height="17" as="geometry">
            <mxRectangle width="17" height="17" as="alternateBounds" />
          </mxGeometry>
        </mxCell>
        <mxCell id="45oBi3vn5nIiIgX2RiwL-18" value="" style="shape=partialRectangle;html=1;whiteSpace=wrap;connectable=0;strokeColor=#000000;overflow=hidden;fillColor=#dae8fc;top=0;left=0;bottom=0;right=0;pointerEvents=1;fontSize=16;swimlaneFillColor=none;strokeWidth=1;swimlaneLine=1;" vertex="1" parent="45oBi3vn5nIiIgX2RiwL-16">
          <mxGeometry x="17" width="16" height="17" as="geometry">
            <mxRectangle width="16" height="17" as="alternateBounds" />
          </mxGeometry>
        </mxCell>
        <mxCell id="45oBi3vn5nIiIgX2RiwL-19" value="" style="shape=partialRectangle;html=1;whiteSpace=wrap;connectable=0;strokeColor=#000000;overflow=hidden;fillColor=#dae8fc;top=0;left=0;bottom=0;right=0;pointerEvents=1;fontSize=16;swimlaneFillColor=none;strokeWidth=1;swimlaneLine=1;" vertex="1" parent="45oBi3vn5nIiIgX2RiwL-16">
          <mxGeometry x="33" width="17" height="17" as="geometry">
            <mxRectangle width="17" height="17" as="alternateBounds" />
          </mxGeometry>
        </mxCell>
        <mxCell id="45oBi3vn5nIiIgX2RiwL-20" value="" style="shape=table;startSize=0;container=1;collapsible=0;childLayout=tableLayout;fontSize=16;swimlaneFillColor=none;fillColor=#f5f5f5;fontColor=#333333;strokeColor=#000000;strokeWidth=1;swimlaneLine=1;" vertex="1" parent="1">
          <mxGeometry x="250" y="300" width="90" height="50" as="geometry" />
        </mxCell>
        <mxCell id="45oBi3vn5nIiIgX2RiwL-21" value="" style="shape=tableRow;horizontal=0;startSize=0;swimlaneHead=0;swimlaneBody=0;strokeColor=#000000;top=0;left=0;bottom=0;right=0;collapsible=0;dropTarget=0;fillColor=none;points=[[0,0.5],[1,0.5]];portConstraint=eastwest;fontSize=16;swimlaneFillColor=none;strokeWidth=1;swimlaneLine=1;" vertex="1" parent="45oBi3vn5nIiIgX2RiwL-20">
          <mxGeometry width="90" height="17" as="geometry" />
        </mxCell>
        <mxCell id="45oBi3vn5nIiIgX2RiwL-36" style="shape=partialRectangle;html=1;whiteSpace=wrap;connectable=0;overflow=hidden;top=0;left=0;bottom=0;right=0;pointerEvents=1;fontSize=16;swimlaneFillColor=none;strokeWidth=1;swimlaneLine=1;" vertex="1" parent="45oBi3vn5nIiIgX2RiwL-21">
          <mxGeometry width="18" height="17" as="geometry">
            <mxRectangle width="18" height="17" as="alternateBounds" />
          </mxGeometry>
        </mxCell>
        <mxCell id="45oBi3vn5nIiIgX2RiwL-33" style="shape=partialRectangle;html=1;whiteSpace=wrap;connectable=0;overflow=hidden;top=0;left=0;bottom=0;right=0;pointerEvents=1;fontSize=16;swimlaneFillColor=none;strokeWidth=1;swimlaneLine=1;" vertex="1" parent="45oBi3vn5nIiIgX2RiwL-21">
          <mxGeometry x="18" width="18" height="17" as="geometry">
            <mxRectangle width="18" height="17" as="alternateBounds" />
          </mxGeometry>
        </mxCell>
        <mxCell id="45oBi3vn5nIiIgX2RiwL-22" value="" style="shape=partialRectangle;html=1;whiteSpace=wrap;connectable=0;strokeColor=#000000;overflow=hidden;fillColor=#dae8fc;top=0;left=0;bottom=0;right=0;pointerEvents=1;fontSize=16;swimlaneFillColor=none;strokeWidth=1;swimlaneLine=1;" vertex="1" parent="45oBi3vn5nIiIgX2RiwL-21">
          <mxGeometry x="36" width="18" height="17" as="geometry">
            <mxRectangle width="18" height="17" as="alternateBounds" />
          </mxGeometry>
        </mxCell>
        <mxCell id="45oBi3vn5nIiIgX2RiwL-23" value="" style="shape=partialRectangle;html=1;whiteSpace=wrap;connectable=0;strokeColor=#000000;overflow=hidden;fillColor=#dae8fc;top=0;left=0;bottom=0;right=0;pointerEvents=1;fontSize=16;swimlaneFillColor=none;strokeWidth=1;swimlaneLine=1;" vertex="1" parent="45oBi3vn5nIiIgX2RiwL-21">
          <mxGeometry x="54" width="18" height="17" as="geometry">
            <mxRectangle width="18" height="17" as="alternateBounds" />
          </mxGeometry>
        </mxCell>
        <mxCell id="45oBi3vn5nIiIgX2RiwL-24" value="" style="shape=partialRectangle;html=1;whiteSpace=wrap;connectable=0;strokeColor=#000000;overflow=hidden;fillColor=#dae8fc;top=0;left=0;bottom=0;right=0;pointerEvents=1;fontSize=16;swimlaneFillColor=none;strokeWidth=1;swimlaneLine=1;" vertex="1" parent="45oBi3vn5nIiIgX2RiwL-21">
          <mxGeometry x="72" width="18" height="17" as="geometry">
            <mxRectangle width="18" height="17" as="alternateBounds" />
          </mxGeometry>
        </mxCell>
        <mxCell id="45oBi3vn5nIiIgX2RiwL-25" value="" style="shape=tableRow;horizontal=0;startSize=0;swimlaneHead=0;swimlaneBody=0;strokeColor=#000000;top=0;left=0;bottom=0;right=0;collapsible=0;dropTarget=0;fillColor=none;points=[[0,0.5],[1,0.5]];portConstraint=eastwest;fontSize=16;swimlaneFillColor=none;strokeWidth=1;swimlaneLine=1;" vertex="1" parent="45oBi3vn5nIiIgX2RiwL-20">
          <mxGeometry y="17" width="90" height="16" as="geometry" />
        </mxCell>
        <mxCell id="45oBi3vn5nIiIgX2RiwL-37" style="shape=partialRectangle;html=1;whiteSpace=wrap;connectable=0;overflow=hidden;top=0;left=0;bottom=0;right=0;pointerEvents=1;fontSize=16;swimlaneFillColor=none;strokeWidth=1;swimlaneLine=1;" vertex="1" parent="45oBi3vn5nIiIgX2RiwL-25">
          <mxGeometry width="18" height="16" as="geometry">
            <mxRectangle width="18" height="16" as="alternateBounds" />
          </mxGeometry>
        </mxCell>
        <mxCell id="45oBi3vn5nIiIgX2RiwL-34" style="shape=partialRectangle;html=1;whiteSpace=wrap;connectable=0;strokeColor=#000000;overflow=hidden;fillColor=#dae8fc;top=0;left=0;bottom=0;right=0;pointerEvents=1;fontSize=16;swimlaneFillColor=none;strokeWidth=1;swimlaneLine=1;" vertex="1" parent="45oBi3vn5nIiIgX2RiwL-25">
          <mxGeometry x="18" width="18" height="16" as="geometry">
            <mxRectangle width="18" height="16" as="alternateBounds" />
          </mxGeometry>
        </mxCell>
        <mxCell id="45oBi3vn5nIiIgX2RiwL-26" value="" style="shape=partialRectangle;html=1;whiteSpace=wrap;connectable=0;strokeColor=#000000;overflow=hidden;fillColor=#dae8fc;top=0;left=0;bottom=0;right=0;pointerEvents=1;fontSize=16;swimlaneFillColor=none;strokeWidth=1;swimlaneLine=1;" vertex="1" parent="45oBi3vn5nIiIgX2RiwL-25">
          <mxGeometry x="36" width="18" height="16" as="geometry">
            <mxRectangle width="18" height="16" as="alternateBounds" />
          </mxGeometry>
        </mxCell>
        <mxCell id="45oBi3vn5nIiIgX2RiwL-27" value="" style="shape=partialRectangle;html=1;whiteSpace=wrap;connectable=0;strokeColor=#000000;overflow=hidden;fillColor=#dae8fc;top=0;left=0;bottom=0;right=0;pointerEvents=1;fontSize=16;swimlaneFillColor=none;strokeWidth=1;swimlaneLine=1;" vertex="1" parent="45oBi3vn5nIiIgX2RiwL-25">
          <mxGeometry x="54" width="18" height="16" as="geometry">
            <mxRectangle width="18" height="16" as="alternateBounds" />
          </mxGeometry>
        </mxCell>
        <mxCell id="45oBi3vn5nIiIgX2RiwL-28" value="" style="shape=partialRectangle;html=1;whiteSpace=wrap;connectable=0;overflow=hidden;top=0;left=0;bottom=0;right=0;pointerEvents=1;fontSize=16;swimlaneFillColor=none;strokeWidth=1;swimlaneLine=1;" vertex="1" parent="45oBi3vn5nIiIgX2RiwL-25">
          <mxGeometry x="72" width="18" height="16" as="geometry">
            <mxRectangle width="18" height="16" as="alternateBounds" />
          </mxGeometry>
        </mxCell>
        <mxCell id="45oBi3vn5nIiIgX2RiwL-29" value="" style="shape=tableRow;horizontal=0;startSize=0;swimlaneHead=0;swimlaneBody=0;strokeColor=#000000;top=0;left=0;bottom=0;right=0;collapsible=0;dropTarget=0;fillColor=none;points=[[0,0.5],[1,0.5]];portConstraint=eastwest;fontSize=16;swimlaneFillColor=none;strokeWidth=1;swimlaneLine=1;" vertex="1" parent="45oBi3vn5nIiIgX2RiwL-20">
          <mxGeometry y="33" width="90" height="17" as="geometry" />
        </mxCell>
        <mxCell id="45oBi3vn5nIiIgX2RiwL-38" style="shape=partialRectangle;html=1;whiteSpace=wrap;connectable=0;strokeColor=#000000;overflow=hidden;fillColor=#dae8fc;top=0;left=0;bottom=0;right=0;pointerEvents=1;fontSize=16;swimlaneFillColor=none;strokeWidth=1;swimlaneLine=1;" vertex="1" parent="45oBi3vn5nIiIgX2RiwL-29">
          <mxGeometry width="18" height="17" as="geometry">
            <mxRectangle width="18" height="17" as="alternateBounds" />
          </mxGeometry>
        </mxCell>
        <mxCell id="45oBi3vn5nIiIgX2RiwL-35" style="shape=partialRectangle;html=1;whiteSpace=wrap;connectable=0;strokeColor=#000000;overflow=hidden;fillColor=#dae8fc;top=0;left=0;bottom=0;right=0;pointerEvents=1;fontSize=16;swimlaneFillColor=none;strokeWidth=1;swimlaneLine=1;" vertex="1" parent="45oBi3vn5nIiIgX2RiwL-29">
          <mxGeometry x="18" width="18" height="17" as="geometry">
            <mxRectangle width="18" height="17" as="alternateBounds" />
          </mxGeometry>
        </mxCell>
        <mxCell id="45oBi3vn5nIiIgX2RiwL-30" value="" style="shape=partialRectangle;html=1;whiteSpace=wrap;connectable=0;strokeColor=#000000;overflow=hidden;fillColor=#dae8fc;top=0;left=0;bottom=0;right=0;pointerEvents=1;fontSize=16;swimlaneFillColor=none;strokeWidth=1;swimlaneLine=1;" vertex="1" parent="45oBi3vn5nIiIgX2RiwL-29">
          <mxGeometry x="36" width="18" height="17" as="geometry">
            <mxRectangle width="18" height="17" as="alternateBounds" />
          </mxGeometry>
        </mxCell>
        <mxCell id="45oBi3vn5nIiIgX2RiwL-31" value="" style="shape=partialRectangle;html=1;whiteSpace=wrap;connectable=0;overflow=hidden;top=0;left=0;bottom=0;right=0;pointerEvents=1;fontSize=16;swimlaneFillColor=none;strokeWidth=1;swimlaneLine=1;" vertex="1" parent="45oBi3vn5nIiIgX2RiwL-29">
          <mxGeometry x="54" width="18" height="17" as="geometry">
            <mxRectangle width="18" height="17" as="alternateBounds" />
          </mxGeometry>
        </mxCell>
        <mxCell id="45oBi3vn5nIiIgX2RiwL-32" value="" style="shape=partialRectangle;html=1;whiteSpace=wrap;connectable=0;overflow=hidden;top=0;left=0;bottom=0;right=0;pointerEvents=1;fontSize=16;swimlaneFillColor=none;strokeWidth=1;swimlaneLine=1;" vertex="1" parent="45oBi3vn5nIiIgX2RiwL-29">
          <mxGeometry x="72" width="18" height="17" as="geometry">
            <mxRectangle width="18" height="17" as="alternateBounds" />
          </mxGeometry>
        </mxCell>
        <mxCell id="45oBi3vn5nIiIgX2RiwL-42" value="" style="shape=table;startSize=0;container=1;collapsible=0;childLayout=tableLayout;fontSize=16;swimlaneFillColor=none;fillColor=#f5f5f5;fontColor=#333333;strokeColor=#000000;strokeWidth=1;swimlaneLine=1;" vertex="1" parent="1">
          <mxGeometry x="600" y="300" width="50" height="50" as="geometry" />
        </mxCell>
        <mxCell id="45oBi3vn5nIiIgX2RiwL-43" value="" style="shape=tableRow;horizontal=0;startSize=0;swimlaneHead=0;swimlaneBody=0;strokeColor=#000000;top=0;left=0;bottom=0;right=0;collapsible=0;dropTarget=0;fillColor=none;points=[[0,0.5],[1,0.5]];portConstraint=eastwest;fontSize=16;swimlaneFillColor=none;strokeWidth=1;swimlaneLine=1;" vertex="1" parent="45oBi3vn5nIiIgX2RiwL-42">
          <mxGeometry width="50" height="17" as="geometry" />
        </mxCell>
        <mxCell id="45oBi3vn5nIiIgX2RiwL-44" value="" style="shape=partialRectangle;html=1;whiteSpace=wrap;connectable=0;strokeColor=#d79b00;overflow=hidden;fillColor=#ffe6cc;top=0;left=0;bottom=0;right=0;pointerEvents=1;fontSize=16;swimlaneFillColor=none;strokeWidth=1;swimlaneLine=1;" vertex="1" parent="45oBi3vn5nIiIgX2RiwL-43">
          <mxGeometry width="17" height="17" as="geometry">
            <mxRectangle width="17" height="17" as="alternateBounds" />
          </mxGeometry>
        </mxCell>
        <mxCell id="45oBi3vn5nIiIgX2RiwL-45" value="" style="shape=partialRectangle;html=1;whiteSpace=wrap;connectable=0;strokeColor=#d79b00;overflow=hidden;fillColor=#ffe6cc;top=0;left=0;bottom=0;right=0;pointerEvents=1;fontSize=16;swimlaneFillColor=none;strokeWidth=1;swimlaneLine=1;" vertex="1" parent="45oBi3vn5nIiIgX2RiwL-43">
          <mxGeometry x="17" width="16" height="17" as="geometry">
            <mxRectangle width="16" height="17" as="alternateBounds" />
          </mxGeometry>
        </mxCell>
        <mxCell id="45oBi3vn5nIiIgX2RiwL-46" value="" style="shape=partialRectangle;html=1;whiteSpace=wrap;connectable=0;strokeColor=#d79b00;overflow=hidden;fillColor=#ffe6cc;top=0;left=0;bottom=0;right=0;pointerEvents=1;fontSize=16;swimlaneFillColor=none;strokeWidth=1;swimlaneLine=1;" vertex="1" parent="45oBi3vn5nIiIgX2RiwL-43">
          <mxGeometry x="33" width="17" height="17" as="geometry">
            <mxRectangle width="17" height="17" as="alternateBounds" />
          </mxGeometry>
        </mxCell>
        <mxCell id="45oBi3vn5nIiIgX2RiwL-47" value="" style="shape=tableRow;horizontal=0;startSize=0;swimlaneHead=0;swimlaneBody=0;strokeColor=#000000;top=0;left=0;bottom=0;right=0;collapsible=0;dropTarget=0;fillColor=none;points=[[0,0.5],[1,0.5]];portConstraint=eastwest;fontSize=16;swimlaneFillColor=none;strokeWidth=1;swimlaneLine=1;" vertex="1" parent="45oBi3vn5nIiIgX2RiwL-42">
          <mxGeometry y="17" width="50" height="16" as="geometry" />
        </mxCell>
        <mxCell id="45oBi3vn5nIiIgX2RiwL-48" value="" style="shape=partialRectangle;html=1;whiteSpace=wrap;connectable=0;strokeColor=#d79b00;overflow=hidden;fillColor=#ffe6cc;top=0;left=0;bottom=0;right=0;pointerEvents=1;fontSize=16;swimlaneFillColor=none;strokeWidth=1;swimlaneLine=1;" vertex="1" parent="45oBi3vn5nIiIgX2RiwL-47">
          <mxGeometry width="17" height="16" as="geometry">
            <mxRectangle width="17" height="16" as="alternateBounds" />
          </mxGeometry>
        </mxCell>
        <mxCell id="45oBi3vn5nIiIgX2RiwL-49" value="" style="shape=partialRectangle;html=1;whiteSpace=wrap;connectable=0;strokeColor=#d79b00;overflow=hidden;fillColor=#ffe6cc;top=0;left=0;bottom=0;right=0;pointerEvents=1;fontSize=16;swimlaneFillColor=none;strokeWidth=1;swimlaneLine=1;" vertex="1" parent="45oBi3vn5nIiIgX2RiwL-47">
          <mxGeometry x="17" width="16" height="16" as="geometry">
            <mxRectangle width="16" height="16" as="alternateBounds" />
          </mxGeometry>
        </mxCell>
        <mxCell id="45oBi3vn5nIiIgX2RiwL-50" value="" style="shape=partialRectangle;html=1;whiteSpace=wrap;connectable=0;strokeColor=#d79b00;overflow=hidden;fillColor=#ffe6cc;top=0;left=0;bottom=0;right=0;pointerEvents=1;fontSize=16;swimlaneFillColor=none;strokeWidth=1;swimlaneLine=1;" vertex="1" parent="45oBi3vn5nIiIgX2RiwL-47">
          <mxGeometry x="33" width="17" height="16" as="geometry">
            <mxRectangle width="17" height="16" as="alternateBounds" />
          </mxGeometry>
        </mxCell>
        <mxCell id="45oBi3vn5nIiIgX2RiwL-51" value="" style="shape=tableRow;horizontal=0;startSize=0;swimlaneHead=0;swimlaneBody=0;strokeColor=#000000;top=0;left=0;bottom=0;right=0;collapsible=0;dropTarget=0;fillColor=none;points=[[0,0.5],[1,0.5]];portConstraint=eastwest;fontSize=16;swimlaneFillColor=none;strokeWidth=1;swimlaneLine=1;" vertex="1" parent="45oBi3vn5nIiIgX2RiwL-42">
          <mxGeometry y="33" width="50" height="17" as="geometry" />
        </mxCell>
        <mxCell id="45oBi3vn5nIiIgX2RiwL-52" value="" style="shape=partialRectangle;html=1;whiteSpace=wrap;connectable=0;strokeColor=#d79b00;overflow=hidden;fillColor=#ffe6cc;top=0;left=0;bottom=0;right=0;pointerEvents=1;fontSize=16;swimlaneFillColor=none;strokeWidth=1;swimlaneLine=1;" vertex="1" parent="45oBi3vn5nIiIgX2RiwL-51">
          <mxGeometry width="17" height="17" as="geometry">
            <mxRectangle width="17" height="17" as="alternateBounds" />
          </mxGeometry>
        </mxCell>
        <mxCell id="45oBi3vn5nIiIgX2RiwL-53" value="" style="shape=partialRectangle;html=1;whiteSpace=wrap;connectable=0;strokeColor=#d79b00;overflow=hidden;fillColor=#ffe6cc;top=0;left=0;bottom=0;right=0;pointerEvents=1;fontSize=16;swimlaneFillColor=none;strokeWidth=1;swimlaneLine=1;" vertex="1" parent="45oBi3vn5nIiIgX2RiwL-51">
          <mxGeometry x="17" width="16" height="17" as="geometry">
            <mxRectangle width="16" height="17" as="alternateBounds" />
          </mxGeometry>
        </mxCell>
        <mxCell id="45oBi3vn5nIiIgX2RiwL-54" value="" style="shape=partialRectangle;html=1;whiteSpace=wrap;connectable=0;strokeColor=#d79b00;overflow=hidden;fillColor=#ffe6cc;top=0;left=0;bottom=0;right=0;pointerEvents=1;fontSize=16;swimlaneFillColor=none;strokeWidth=1;swimlaneLine=1;" vertex="1" parent="45oBi3vn5nIiIgX2RiwL-51">
          <mxGeometry x="33" width="17" height="17" as="geometry">
            <mxRectangle width="17" height="17" as="alternateBounds" />
          </mxGeometry>
        </mxCell>
      </root>
    </mxGraphModel>
  </diagram>
  <diagram name="Copy of SystolicFlow" id="JV5UQlFeWszEpJObWrAk">
    <mxGraphModel dx="1372" dy="966" grid="1" gridSize="10" guides="1" tooltips="1" connect="1" arrows="1" fold="1" page="1" pageScale="1" pageWidth="850" pageHeight="1100" math="0" shadow="0">
      <root>
        <mxCell id="Y1YjxITI4LRJLDdAwMOh-0" />
        <mxCell id="Y1YjxITI4LRJLDdAwMOh-1" parent="Y1YjxITI4LRJLDdAwMOh-0" />
        <mxCell id="Y1YjxITI4LRJLDdAwMOh-2" style="edgeStyle=orthogonalEdgeStyle;rounded=0;orthogonalLoop=1;jettySize=auto;html=1;entryX=0;entryY=0.5;entryDx=0;entryDy=0;" edge="1" parent="Y1YjxITI4LRJLDdAwMOh-1" source="Y1YjxITI4LRJLDdAwMOh-3" target="Y1YjxITI4LRJLDdAwMOh-11">
          <mxGeometry relative="1" as="geometry" />
        </mxCell>
        <mxCell id="Y1YjxITI4LRJLDdAwMOh-3" value="Systolic Array" style="whiteSpace=wrap;html=1;aspect=fixed;" vertex="1" parent="Y1YjxITI4LRJLDdAwMOh-1">
          <mxGeometry x="360" y="340" width="80" height="80" as="geometry" />
        </mxCell>
        <mxCell id="Y1YjxITI4LRJLDdAwMOh-10" style="edgeStyle=orthogonalEdgeStyle;rounded=0;orthogonalLoop=1;jettySize=auto;html=1;entryX=0.5;entryY=0;entryDx=0;entryDy=0;" edge="1" parent="Y1YjxITI4LRJLDdAwMOh-1" target="vlBIoO1DlprrFdn-flvZ-18">
          <mxGeometry relative="1" as="geometry">
            <mxPoint x="600" y="379.74" as="targetPoint" />
            <mxPoint x="470" y="379.7399999999999" as="sourcePoint" />
          </mxGeometry>
        </mxCell>
        <mxCell id="Y1YjxITI4LRJLDdAwMOh-11" value="Reader" style="whiteSpace=wrap;html=1;aspect=fixed;" vertex="1" parent="Y1YjxITI4LRJLDdAwMOh-1">
          <mxGeometry x="470" y="340" width="80" height="80" as="geometry" />
        </mxCell>
        <mxCell id="vlBIoO1DlprrFdn-flvZ-5" style="edgeStyle=orthogonalEdgeStyle;rounded=0;orthogonalLoop=1;jettySize=auto;html=1;entryX=0;entryY=0.5;entryDx=0;entryDy=0;" edge="1" parent="Y1YjxITI4LRJLDdAwMOh-1" source="vlBIoO1DlprrFdn-flvZ-0" target="Y1YjxITI4LRJLDdAwMOh-3">
          <mxGeometry relative="1" as="geometry" />
        </mxCell>
        <mxCell id="vlBIoO1DlprrFdn-flvZ-25" style="edgeStyle=orthogonalEdgeStyle;rounded=0;orthogonalLoop=1;jettySize=auto;html=1;startArrow=classic;startFill=1;endArrow=none;endFill=0;" edge="1" parent="Y1YjxITI4LRJLDdAwMOh-1" source="vlBIoO1DlprrFdn-flvZ-0">
          <mxGeometry relative="1" as="geometry">
            <mxPoint x="230" y="470" as="targetPoint" />
          </mxGeometry>
        </mxCell>
        <mxCell id="vlBIoO1DlprrFdn-flvZ-0" value="Sender" style="rounded=0;whiteSpace=wrap;html=1;" vertex="1" parent="Y1YjxITI4LRJLDdAwMOh-1">
          <mxGeometry x="300" y="340" width="40" height="80" as="geometry" />
        </mxCell>
        <mxCell id="vlBIoO1DlprrFdn-flvZ-2" style="edgeStyle=orthogonalEdgeStyle;rounded=0;orthogonalLoop=1;jettySize=auto;html=1;entryX=0.5;entryY=0;entryDx=0;entryDy=0;" edge="1" parent="Y1YjxITI4LRJLDdAwMOh-1" source="vlBIoO1DlprrFdn-flvZ-1" target="Y1YjxITI4LRJLDdAwMOh-3">
          <mxGeometry relative="1" as="geometry" />
        </mxCell>
        <mxCell id="vlBIoO1DlprrFdn-flvZ-27" style="edgeStyle=orthogonalEdgeStyle;rounded=0;orthogonalLoop=1;jettySize=auto;html=1;" edge="1" parent="Y1YjxITI4LRJLDdAwMOh-1" target="vlBIoO1DlprrFdn-flvZ-1">
          <mxGeometry relative="1" as="geometry">
            <mxPoint x="400" y="230" as="sourcePoint" />
          </mxGeometry>
        </mxCell>
        <mxCell id="vlBIoO1DlprrFdn-flvZ-1" value="Sender" style="rounded=0;whiteSpace=wrap;html=1;" vertex="1" parent="Y1YjxITI4LRJLDdAwMOh-1">
          <mxGeometry x="360" y="280" width="80" height="40" as="geometry" />
        </mxCell>
        <mxCell id="vlBIoO1DlprrFdn-flvZ-14" style="edgeStyle=orthogonalEdgeStyle;rounded=0;orthogonalLoop=1;jettySize=auto;html=1;entryX=0;entryY=0.5;entryDx=0;entryDy=0;" edge="1" parent="Y1YjxITI4LRJLDdAwMOh-1" source="vlBIoO1DlprrFdn-flvZ-6" target="vlBIoO1DlprrFdn-flvZ-12">
          <mxGeometry relative="1" as="geometry" />
        </mxCell>
        <mxCell id="vlBIoO1DlprrFdn-flvZ-6" value="Systolic Array" style="whiteSpace=wrap;html=1;aspect=fixed;" vertex="1" parent="Y1YjxITI4LRJLDdAwMOh-1">
          <mxGeometry x="360" y="480" width="80" height="80" as="geometry" />
        </mxCell>
        <mxCell id="vlBIoO1DlprrFdn-flvZ-9" style="edgeStyle=orthogonalEdgeStyle;rounded=0;orthogonalLoop=1;jettySize=auto;html=1;entryX=0;entryY=0.5;entryDx=0;entryDy=0;" edge="1" parent="Y1YjxITI4LRJLDdAwMOh-1" source="vlBIoO1DlprrFdn-flvZ-7" target="vlBIoO1DlprrFdn-flvZ-6">
          <mxGeometry relative="1" as="geometry" />
        </mxCell>
        <mxCell id="vlBIoO1DlprrFdn-flvZ-26" style="edgeStyle=orthogonalEdgeStyle;rounded=0;orthogonalLoop=1;jettySize=auto;html=1;startArrow=classic;startFill=1;endArrow=none;endFill=0;" edge="1" parent="Y1YjxITI4LRJLDdAwMOh-1" source="vlBIoO1DlprrFdn-flvZ-7">
          <mxGeometry relative="1" as="geometry">
            <mxPoint x="230" y="470" as="targetPoint" />
          </mxGeometry>
        </mxCell>
        <mxCell id="vlBIoO1DlprrFdn-flvZ-7" value="Sender" style="rounded=0;whiteSpace=wrap;html=1;" vertex="1" parent="Y1YjxITI4LRJLDdAwMOh-1">
          <mxGeometry x="300" y="480" width="40" height="80" as="geometry" />
        </mxCell>
        <mxCell id="vlBIoO1DlprrFdn-flvZ-11" style="edgeStyle=orthogonalEdgeStyle;rounded=0;orthogonalLoop=1;jettySize=auto;html=1;entryX=0.5;entryY=1;entryDx=0;entryDy=0;" edge="1" parent="Y1YjxITI4LRJLDdAwMOh-1" source="vlBIoO1DlprrFdn-flvZ-10" target="vlBIoO1DlprrFdn-flvZ-6">
          <mxGeometry relative="1" as="geometry" />
        </mxCell>
        <mxCell id="vlBIoO1DlprrFdn-flvZ-10" value="Sender" style="rounded=0;whiteSpace=wrap;html=1;" vertex="1" parent="Y1YjxITI4LRJLDdAwMOh-1">
          <mxGeometry x="360" y="580" width="80" height="40" as="geometry" />
        </mxCell>
        <mxCell id="vlBIoO1DlprrFdn-flvZ-17" style="edgeStyle=orthogonalEdgeStyle;rounded=0;orthogonalLoop=1;jettySize=auto;html=1;entryX=0;entryY=0.5;entryDx=0;entryDy=0;" edge="1" parent="Y1YjxITI4LRJLDdAwMOh-1" source="vlBIoO1DlprrFdn-flvZ-12" target="vlBIoO1DlprrFdn-flvZ-16">
          <mxGeometry relative="1" as="geometry" />
        </mxCell>
        <mxCell id="vlBIoO1DlprrFdn-flvZ-12" value="Reader&lt;br&gt;(Transpose)" style="whiteSpace=wrap;html=1;aspect=fixed;" vertex="1" parent="Y1YjxITI4LRJLDdAwMOh-1">
          <mxGeometry x="470" y="480" width="80" height="80" as="geometry" />
        </mxCell>
        <mxCell id="vlBIoO1DlprrFdn-flvZ-32" style="edgeStyle=orthogonalEdgeStyle;rounded=0;orthogonalLoop=1;jettySize=auto;html=1;entryX=0;entryY=0.5;entryDx=0;entryDy=0;" edge="1" parent="Y1YjxITI4LRJLDdAwMOh-1" source="vlBIoO1DlprrFdn-flvZ-15" target="vlBIoO1DlprrFdn-flvZ-31">
          <mxGeometry relative="1" as="geometry" />
        </mxCell>
        <mxCell id="vlBIoO1DlprrFdn-flvZ-15" value="Systolic Array" style="whiteSpace=wrap;html=1;aspect=fixed;" vertex="1" parent="Y1YjxITI4LRJLDdAwMOh-1">
          <mxGeometry x="700" y="480" width="80" height="80" as="geometry" />
        </mxCell>
        <mxCell id="vlBIoO1DlprrFdn-flvZ-22" style="edgeStyle=orthogonalEdgeStyle;rounded=0;orthogonalLoop=1;jettySize=auto;html=1;entryX=0;entryY=0.5;entryDx=0;entryDy=0;" edge="1" parent="Y1YjxITI4LRJLDdAwMOh-1" source="vlBIoO1DlprrFdn-flvZ-16" target="vlBIoO1DlprrFdn-flvZ-15">
          <mxGeometry relative="1" as="geometry" />
        </mxCell>
        <mxCell id="vlBIoO1DlprrFdn-flvZ-16" value="Sender" style="rounded=0;whiteSpace=wrap;html=1;" vertex="1" parent="Y1YjxITI4LRJLDdAwMOh-1">
          <mxGeometry x="640" y="480" width="40" height="80" as="geometry" />
        </mxCell>
        <mxCell id="vlBIoO1DlprrFdn-flvZ-21" style="edgeStyle=orthogonalEdgeStyle;rounded=0;orthogonalLoop=1;jettySize=auto;html=1;entryX=0.5;entryY=0;entryDx=0;entryDy=0;" edge="1" parent="Y1YjxITI4LRJLDdAwMOh-1" source="vlBIoO1DlprrFdn-flvZ-18" target="vlBIoO1DlprrFdn-flvZ-15">
          <mxGeometry relative="1" as="geometry" />
        </mxCell>
        <mxCell id="vlBIoO1DlprrFdn-flvZ-18" value="Sender" style="rounded=0;whiteSpace=wrap;html=1;" vertex="1" parent="Y1YjxITI4LRJLDdAwMOh-1">
          <mxGeometry x="700" y="420" width="80" height="40" as="geometry" />
        </mxCell>
        <mxCell id="vlBIoO1DlprrFdn-flvZ-23" value="" style="endArrow=classic;html=1;rounded=0;entryX=0.5;entryY=1;entryDx=0;entryDy=0;" edge="1" parent="Y1YjxITI4LRJLDdAwMOh-1" target="vlBIoO1DlprrFdn-flvZ-10">
          <mxGeometry width="50" height="50" relative="1" as="geometry">
            <mxPoint x="400" y="670" as="sourcePoint" />
            <mxPoint x="425" y="650" as="targetPoint" />
          </mxGeometry>
        </mxCell>
        <mxCell id="vlBIoO1DlprrFdn-flvZ-24" value="" style="endArrow=classic;html=1;rounded=0;" edge="1" parent="Y1YjxITI4LRJLDdAwMOh-1">
          <mxGeometry width="50" height="50" relative="1" as="geometry">
            <mxPoint x="170" y="450" as="sourcePoint" />
            <mxPoint x="230" y="450" as="targetPoint" />
          </mxGeometry>
        </mxCell>
        <mxCell id="vlBIoO1DlprrFdn-flvZ-34" style="edgeStyle=orthogonalEdgeStyle;rounded=0;orthogonalLoop=1;jettySize=auto;html=1;startArrow=classic;startFill=1;endArrow=none;endFill=0;" edge="1" parent="Y1YjxITI4LRJLDdAwMOh-1" source="vlBIoO1DlprrFdn-flvZ-28">
          <mxGeometry relative="1" as="geometry">
            <mxPoint x="230" y="520" as="targetPoint" />
          </mxGeometry>
        </mxCell>
        <mxCell id="vlBIoO1DlprrFdn-flvZ-35" style="edgeStyle=orthogonalEdgeStyle;rounded=0;orthogonalLoop=1;jettySize=auto;html=1;entryX=0;entryY=0.5;entryDx=0;entryDy=0;" edge="1" parent="Y1YjxITI4LRJLDdAwMOh-1" source="vlBIoO1DlprrFdn-flvZ-28" target="vlBIoO1DlprrFdn-flvZ-29">
          <mxGeometry relative="1" as="geometry" />
        </mxCell>
        <mxCell id="vlBIoO1DlprrFdn-flvZ-28" value="Sender" style="rounded=0;whiteSpace=wrap;html=1;" vertex="1" parent="Y1YjxITI4LRJLDdAwMOh-1">
          <mxGeometry x="300" y="750" width="40" height="80" as="geometry" />
        </mxCell>
        <mxCell id="vlBIoO1DlprrFdn-flvZ-46" style="edgeStyle=orthogonalEdgeStyle;rounded=0;orthogonalLoop=1;jettySize=auto;html=1;entryX=0;entryY=0.5;entryDx=0;entryDy=0;" edge="1" parent="Y1YjxITI4LRJLDdAwMOh-1" source="vlBIoO1DlprrFdn-flvZ-29" target="vlBIoO1DlprrFdn-flvZ-39">
          <mxGeometry relative="1" as="geometry" />
        </mxCell>
        <mxCell id="vlBIoO1DlprrFdn-flvZ-29" value="Systolic Array" style="whiteSpace=wrap;html=1;aspect=fixed;" vertex="1" parent="Y1YjxITI4LRJLDdAwMOh-1">
          <mxGeometry x="360" y="750" width="80" height="80" as="geometry" />
        </mxCell>
        <mxCell id="vlBIoO1DlprrFdn-flvZ-43" style="edgeStyle=orthogonalEdgeStyle;rounded=0;orthogonalLoop=1;jettySize=auto;html=1;entryX=0;entryY=0.5;entryDx=0;entryDy=0;" edge="1" parent="Y1YjxITI4LRJLDdAwMOh-1" source="vlBIoO1DlprrFdn-flvZ-31" target="vlBIoO1DlprrFdn-flvZ-42">
          <mxGeometry relative="1" as="geometry" />
        </mxCell>
        <mxCell id="vlBIoO1DlprrFdn-flvZ-31" value="Scaled Softmax" style="whiteSpace=wrap;html=1;aspect=fixed;" vertex="1" parent="Y1YjxITI4LRJLDdAwMOh-1">
          <mxGeometry x="830" y="480" width="80" height="80" as="geometry" />
        </mxCell>
        <mxCell id="vlBIoO1DlprrFdn-flvZ-36" style="edgeStyle=orthogonalEdgeStyle;rounded=0;orthogonalLoop=1;jettySize=auto;html=1;" edge="1" parent="Y1YjxITI4LRJLDdAwMOh-1" target="vlBIoO1DlprrFdn-flvZ-33">
          <mxGeometry relative="1" as="geometry">
            <mxPoint x="400" y="940" as="sourcePoint" />
          </mxGeometry>
        </mxCell>
        <mxCell id="vlBIoO1DlprrFdn-flvZ-37" style="edgeStyle=orthogonalEdgeStyle;rounded=0;orthogonalLoop=1;jettySize=auto;html=1;entryX=0.5;entryY=1;entryDx=0;entryDy=0;" edge="1" parent="Y1YjxITI4LRJLDdAwMOh-1" source="vlBIoO1DlprrFdn-flvZ-33" target="vlBIoO1DlprrFdn-flvZ-29">
          <mxGeometry relative="1" as="geometry" />
        </mxCell>
        <mxCell id="vlBIoO1DlprrFdn-flvZ-33" value="Sender" style="rounded=0;whiteSpace=wrap;html=1;" vertex="1" parent="Y1YjxITI4LRJLDdAwMOh-1">
          <mxGeometry x="360" y="850" width="80" height="40" as="geometry" />
        </mxCell>
        <mxCell id="vlBIoO1DlprrFdn-flvZ-47" style="edgeStyle=orthogonalEdgeStyle;rounded=0;orthogonalLoop=1;jettySize=auto;html=1;entryX=0.5;entryY=1;entryDx=0;entryDy=0;" edge="1" parent="Y1YjxITI4LRJLDdAwMOh-1" source="vlBIoO1DlprrFdn-flvZ-39" target="vlBIoO1DlprrFdn-flvZ-41">
          <mxGeometry relative="1" as="geometry" />
        </mxCell>
        <mxCell id="vlBIoO1DlprrFdn-flvZ-39" value="Reader" style="whiteSpace=wrap;html=1;aspect=fixed;" vertex="1" parent="Y1YjxITI4LRJLDdAwMOh-1">
          <mxGeometry x="460" y="750" width="80" height="80" as="geometry" />
        </mxCell>
        <mxCell id="vlBIoO1DlprrFdn-flvZ-52" style="edgeStyle=orthogonalEdgeStyle;rounded=0;orthogonalLoop=1;jettySize=auto;html=1;" edge="1" parent="Y1YjxITI4LRJLDdAwMOh-1" source="vlBIoO1DlprrFdn-flvZ-40">
          <mxGeometry relative="1" as="geometry">
            <mxPoint x="1160" y="520" as="targetPoint" />
          </mxGeometry>
        </mxCell>
        <mxCell id="vlBIoO1DlprrFdn-flvZ-40" value="Systolic Array" style="whiteSpace=wrap;html=1;aspect=fixed;" vertex="1" parent="Y1YjxITI4LRJLDdAwMOh-1">
          <mxGeometry x="1020" y="480" width="80" height="80" as="geometry" />
        </mxCell>
        <mxCell id="vlBIoO1DlprrFdn-flvZ-45" style="edgeStyle=orthogonalEdgeStyle;rounded=0;orthogonalLoop=1;jettySize=auto;html=1;entryX=0.5;entryY=1;entryDx=0;entryDy=0;" edge="1" parent="Y1YjxITI4LRJLDdAwMOh-1" source="vlBIoO1DlprrFdn-flvZ-41" target="vlBIoO1DlprrFdn-flvZ-40">
          <mxGeometry relative="1" as="geometry" />
        </mxCell>
        <mxCell id="vlBIoO1DlprrFdn-flvZ-41" value="Sender" style="rounded=0;whiteSpace=wrap;html=1;" vertex="1" parent="Y1YjxITI4LRJLDdAwMOh-1">
          <mxGeometry x="1020" y="580" width="80" height="40" as="geometry" />
        </mxCell>
        <mxCell id="vlBIoO1DlprrFdn-flvZ-44" style="edgeStyle=orthogonalEdgeStyle;rounded=0;orthogonalLoop=1;jettySize=auto;html=1;entryX=0;entryY=0.5;entryDx=0;entryDy=0;" edge="1" parent="Y1YjxITI4LRJLDdAwMOh-1" source="vlBIoO1DlprrFdn-flvZ-42" target="vlBIoO1DlprrFdn-flvZ-40">
          <mxGeometry relative="1" as="geometry" />
        </mxCell>
        <mxCell id="vlBIoO1DlprrFdn-flvZ-42" value="Sender" style="rounded=0;whiteSpace=wrap;html=1;" vertex="1" parent="Y1YjxITI4LRJLDdAwMOh-1">
          <mxGeometry x="960" y="480" width="40" height="80" as="geometry" />
        </mxCell>
        <mxCell id="vlBIoO1DlprrFdn-flvZ-48" value="W&lt;sub&gt;K&lt;/sub&gt;" style="text;html=1;strokeColor=none;fillColor=none;align=center;verticalAlign=middle;whiteSpace=wrap;rounded=0;" vertex="1" parent="Y1YjxITI4LRJLDdAwMOh-1">
          <mxGeometry x="370" y="680" width="60" height="30" as="geometry" />
        </mxCell>
        <mxCell id="vlBIoO1DlprrFdn-flvZ-49" value="W&lt;sub&gt;Q&lt;/sub&gt;" style="text;html=1;strokeColor=none;fillColor=none;align=center;verticalAlign=middle;whiteSpace=wrap;rounded=0;" vertex="1" parent="Y1YjxITI4LRJLDdAwMOh-1">
          <mxGeometry x="370" y="190" width="60" height="30" as="geometry" />
        </mxCell>
        <mxCell id="vlBIoO1DlprrFdn-flvZ-50" value="X" style="text;html=1;strokeColor=none;fillColor=none;align=center;verticalAlign=middle;whiteSpace=wrap;rounded=0;" vertex="1" parent="Y1YjxITI4LRJLDdAwMOh-1">
          <mxGeometry x="100" y="440" width="60" height="30" as="geometry" />
        </mxCell>
        <mxCell id="vlBIoO1DlprrFdn-flvZ-51" value="W&lt;sub&gt;V&lt;/sub&gt;" style="text;html=1;strokeColor=none;fillColor=none;align=center;verticalAlign=middle;whiteSpace=wrap;rounded=0;" vertex="1" parent="Y1YjxITI4LRJLDdAwMOh-1">
          <mxGeometry x="370" y="950" width="60" height="30" as="geometry" />
        </mxCell>
      </root>
    </mxGraphModel>
  </diagram>
  <diagram id="ab9xOkuot2MCzpy1ACv1" name="Configurable">
    <mxGraphModel dx="1943" dy="1368" grid="1" gridSize="10" guides="1" tooltips="1" connect="1" arrows="1" fold="1" page="1" pageScale="1" pageWidth="850" pageHeight="1100" math="0" shadow="0">
      <root>
        <mxCell id="0" />
        <mxCell id="1" parent="0" />
        <mxCell id="gBcejMpqv1lu-bcaoF28-3" style="edgeStyle=orthogonalEdgeStyle;rounded=0;orthogonalLoop=1;jettySize=auto;html=1;entryX=0;entryY=0.5;entryDx=0;entryDy=0;" edge="1" parent="1" source="sUp3S7AHEKhRccit5g7_-1" target="gBcejMpqv1lu-bcaoF28-16">
          <mxGeometry relative="1" as="geometry">
            <mxPoint x="420" y="360.0000000000001" as="targetPoint" />
          </mxGeometry>
        </mxCell>
        <mxCell id="gBcejMpqv1lu-bcaoF28-4" style="edgeStyle=orthogonalEdgeStyle;rounded=0;orthogonalLoop=1;jettySize=auto;html=1;" edge="1" parent="1" source="sUp3S7AHEKhRccit5g7_-1">
          <mxGeometry relative="1" as="geometry">
            <mxPoint x="320" y="460" as="targetPoint" />
          </mxGeometry>
        </mxCell>
        <mxCell id="sUp3S7AHEKhRccit5g7_-1" value="Systolic Array" style="whiteSpace=wrap;html=1;aspect=fixed;" vertex="1" parent="1">
          <mxGeometry x="280" y="320" width="80" height="80" as="geometry" />
        </mxCell>
        <mxCell id="gBcejMpqv1lu-bcaoF28-1" style="edgeStyle=orthogonalEdgeStyle;rounded=0;orthogonalLoop=1;jettySize=auto;html=1;entryX=0;entryY=0.5;entryDx=0;entryDy=0;" edge="1" parent="1" source="tzl79hKMkqQTTM5x4_hU-1" target="sUp3S7AHEKhRccit5g7_-1">
          <mxGeometry relative="1" as="geometry" />
        </mxCell>
        <mxCell id="tzl79hKMkqQTTM5x4_hU-1" value="MUX" style="rounded=0;whiteSpace=wrap;html=1;" vertex="1" parent="1">
          <mxGeometry x="220" y="320" width="40" height="80" as="geometry" />
        </mxCell>
        <mxCell id="gBcejMpqv1lu-bcaoF28-2" style="edgeStyle=orthogonalEdgeStyle;rounded=0;orthogonalLoop=1;jettySize=auto;html=1;entryX=0.5;entryY=0;entryDx=0;entryDy=0;" edge="1" parent="1" source="G3i3jobUlDM1GS6DyrpD-1" target="sUp3S7AHEKhRccit5g7_-1">
          <mxGeometry relative="1" as="geometry" />
        </mxCell>
        <mxCell id="G3i3jobUlDM1GS6DyrpD-1" value="MUX" style="rounded=0;whiteSpace=wrap;html=1;" vertex="1" parent="1">
          <mxGeometry x="280" y="260" width="80" height="40" as="geometry" />
        </mxCell>
        <mxCell id="gBcejMpqv1lu-bcaoF28-5" style="edgeStyle=orthogonalEdgeStyle;rounded=0;orthogonalLoop=1;jettySize=auto;html=1;entryX=0;entryY=0.5;entryDx=0;entryDy=0;" edge="1" parent="1" source="gBcejMpqv1lu-bcaoF28-7" target="gBcejMpqv1lu-bcaoF28-37">
          <mxGeometry relative="1" as="geometry">
            <mxPoint x="420" y="560" as="targetPoint" />
          </mxGeometry>
        </mxCell>
        <mxCell id="gBcejMpqv1lu-bcaoF28-6" style="edgeStyle=orthogonalEdgeStyle;rounded=0;orthogonalLoop=1;jettySize=auto;html=1;" edge="1" parent="1" source="gBcejMpqv1lu-bcaoF28-7">
          <mxGeometry relative="1" as="geometry">
            <mxPoint x="320" y="660" as="targetPoint" />
          </mxGeometry>
        </mxCell>
        <mxCell id="gBcejMpqv1lu-bcaoF28-7" value="Systolic Array" style="whiteSpace=wrap;html=1;aspect=fixed;" vertex="1" parent="1">
          <mxGeometry x="280" y="520" width="80" height="80" as="geometry" />
        </mxCell>
        <mxCell id="gBcejMpqv1lu-bcaoF28-8" style="edgeStyle=orthogonalEdgeStyle;rounded=0;orthogonalLoop=1;jettySize=auto;html=1;entryX=0;entryY=0.5;entryDx=0;entryDy=0;" edge="1" parent="1" source="gBcejMpqv1lu-bcaoF28-9" target="gBcejMpqv1lu-bcaoF28-7">
          <mxGeometry relative="1" as="geometry" />
        </mxCell>
        <mxCell id="gBcejMpqv1lu-bcaoF28-9" value="MUX" style="rounded=0;whiteSpace=wrap;html=1;" vertex="1" parent="1">
          <mxGeometry x="220" y="520" width="40" height="80" as="geometry" />
        </mxCell>
        <mxCell id="gBcejMpqv1lu-bcaoF28-10" style="edgeStyle=orthogonalEdgeStyle;rounded=0;orthogonalLoop=1;jettySize=auto;html=1;entryX=0.5;entryY=0;entryDx=0;entryDy=0;" edge="1" parent="1" source="gBcejMpqv1lu-bcaoF28-11" target="gBcejMpqv1lu-bcaoF28-7">
          <mxGeometry relative="1" as="geometry" />
        </mxCell>
        <mxCell id="gBcejMpqv1lu-bcaoF28-11" value="MUX" style="rounded=0;whiteSpace=wrap;html=1;" vertex="1" parent="1">
          <mxGeometry x="280" y="460" width="80" height="40" as="geometry" />
        </mxCell>
        <mxCell id="gBcejMpqv1lu-bcaoF28-12" style="edgeStyle=orthogonalEdgeStyle;rounded=0;orthogonalLoop=1;jettySize=auto;html=1;" edge="1" parent="1" source="gBcejMpqv1lu-bcaoF28-14">
          <mxGeometry relative="1" as="geometry">
            <mxPoint x="630" y="360" as="targetPoint" />
          </mxGeometry>
        </mxCell>
        <mxCell id="gBcejMpqv1lu-bcaoF28-13" style="edgeStyle=orthogonalEdgeStyle;rounded=0;orthogonalLoop=1;jettySize=auto;html=1;" edge="1" parent="1" source="gBcejMpqv1lu-bcaoF28-14">
          <mxGeometry relative="1" as="geometry">
            <mxPoint x="525" y="460" as="targetPoint" />
          </mxGeometry>
        </mxCell>
        <mxCell id="gBcejMpqv1lu-bcaoF28-14" value="Systolic Array" style="whiteSpace=wrap;html=1;aspect=fixed;" vertex="1" parent="1">
          <mxGeometry x="485" y="320" width="80" height="80" as="geometry" />
        </mxCell>
        <mxCell id="gBcejMpqv1lu-bcaoF28-15" style="edgeStyle=orthogonalEdgeStyle;rounded=0;orthogonalLoop=1;jettySize=auto;html=1;entryX=0;entryY=0.5;entryDx=0;entryDy=0;" edge="1" parent="1" source="gBcejMpqv1lu-bcaoF28-16" target="gBcejMpqv1lu-bcaoF28-14">
          <mxGeometry relative="1" as="geometry" />
        </mxCell>
        <mxCell id="gBcejMpqv1lu-bcaoF28-16" value="MUX" style="rounded=0;whiteSpace=wrap;html=1;" vertex="1" parent="1">
          <mxGeometry x="425" y="320" width="40" height="80" as="geometry" />
        </mxCell>
        <mxCell id="gBcejMpqv1lu-bcaoF28-17" style="edgeStyle=orthogonalEdgeStyle;rounded=0;orthogonalLoop=1;jettySize=auto;html=1;entryX=0.5;entryY=0;entryDx=0;entryDy=0;" edge="1" parent="1" source="gBcejMpqv1lu-bcaoF28-18" target="gBcejMpqv1lu-bcaoF28-14">
          <mxGeometry relative="1" as="geometry" />
        </mxCell>
        <mxCell id="gBcejMpqv1lu-bcaoF28-18" value="MUX" style="rounded=0;whiteSpace=wrap;html=1;" vertex="1" parent="1">
          <mxGeometry x="485" y="260" width="80" height="40" as="geometry" />
        </mxCell>
        <mxCell id="gBcejMpqv1lu-bcaoF28-33" style="edgeStyle=orthogonalEdgeStyle;rounded=0;orthogonalLoop=1;jettySize=auto;html=1;" edge="1" parent="1" source="gBcejMpqv1lu-bcaoF28-35">
          <mxGeometry relative="1" as="geometry">
            <mxPoint x="625" y="560" as="targetPoint" />
          </mxGeometry>
        </mxCell>
        <mxCell id="gBcejMpqv1lu-bcaoF28-34" style="edgeStyle=orthogonalEdgeStyle;rounded=0;orthogonalLoop=1;jettySize=auto;html=1;" edge="1" parent="1" source="gBcejMpqv1lu-bcaoF28-35">
          <mxGeometry relative="1" as="geometry">
            <mxPoint x="525" y="660" as="targetPoint" />
          </mxGeometry>
        </mxCell>
        <mxCell id="gBcejMpqv1lu-bcaoF28-35" value="Systolic Array" style="whiteSpace=wrap;html=1;aspect=fixed;" vertex="1" parent="1">
          <mxGeometry x="485" y="520" width="80" height="80" as="geometry" />
        </mxCell>
        <mxCell id="gBcejMpqv1lu-bcaoF28-36" style="edgeStyle=orthogonalEdgeStyle;rounded=0;orthogonalLoop=1;jettySize=auto;html=1;entryX=0;entryY=0.5;entryDx=0;entryDy=0;" edge="1" parent="1" source="gBcejMpqv1lu-bcaoF28-37" target="gBcejMpqv1lu-bcaoF28-35">
          <mxGeometry relative="1" as="geometry" />
        </mxCell>
        <mxCell id="gBcejMpqv1lu-bcaoF28-37" value="MUX" style="rounded=0;whiteSpace=wrap;html=1;" vertex="1" parent="1">
          <mxGeometry x="425" y="520" width="40" height="80" as="geometry" />
        </mxCell>
        <mxCell id="gBcejMpqv1lu-bcaoF28-38" style="edgeStyle=orthogonalEdgeStyle;rounded=0;orthogonalLoop=1;jettySize=auto;html=1;entryX=0.5;entryY=0;entryDx=0;entryDy=0;" edge="1" parent="1" source="gBcejMpqv1lu-bcaoF28-39" target="gBcejMpqv1lu-bcaoF28-35">
          <mxGeometry relative="1" as="geometry" />
        </mxCell>
        <mxCell id="gBcejMpqv1lu-bcaoF28-39" value="MUX" style="rounded=0;whiteSpace=wrap;html=1;" vertex="1" parent="1">
          <mxGeometry x="485" y="460" width="80" height="40" as="geometry" />
        </mxCell>
        <mxCell id="RuLZ8seGhE5P3lEb2IIF-1" style="edgeStyle=orthogonalEdgeStyle;rounded=0;orthogonalLoop=1;jettySize=auto;html=1;entryX=0;entryY=0.5;entryDx=0;entryDy=0;" edge="1" parent="1" source="RuLZ8seGhE5P3lEb2IIF-3" target="RuLZ8seGhE5P3lEb2IIF-19">
          <mxGeometry relative="1" as="geometry">
            <mxPoint x="420" y="760.0000000000001" as="targetPoint" />
          </mxGeometry>
        </mxCell>
        <mxCell id="RuLZ8seGhE5P3lEb2IIF-2" style="edgeStyle=orthogonalEdgeStyle;rounded=0;orthogonalLoop=1;jettySize=auto;html=1;" edge="1" parent="1" source="RuLZ8seGhE5P3lEb2IIF-3">
          <mxGeometry relative="1" as="geometry">
            <mxPoint x="320" y="860" as="targetPoint" />
          </mxGeometry>
        </mxCell>
        <mxCell id="RuLZ8seGhE5P3lEb2IIF-3" value="Systolic Array" style="whiteSpace=wrap;html=1;aspect=fixed;" vertex="1" parent="1">
          <mxGeometry x="280" y="720" width="80" height="80" as="geometry" />
        </mxCell>
        <mxCell id="RuLZ8seGhE5P3lEb2IIF-4" style="edgeStyle=orthogonalEdgeStyle;rounded=0;orthogonalLoop=1;jettySize=auto;html=1;entryX=0;entryY=0.5;entryDx=0;entryDy=0;" edge="1" parent="1" source="RuLZ8seGhE5P3lEb2IIF-5" target="RuLZ8seGhE5P3lEb2IIF-3">
          <mxGeometry relative="1" as="geometry" />
        </mxCell>
        <mxCell id="RuLZ8seGhE5P3lEb2IIF-5" value="MUX" style="rounded=0;whiteSpace=wrap;html=1;" vertex="1" parent="1">
          <mxGeometry x="220" y="720" width="40" height="80" as="geometry" />
        </mxCell>
        <mxCell id="RuLZ8seGhE5P3lEb2IIF-6" style="edgeStyle=orthogonalEdgeStyle;rounded=0;orthogonalLoop=1;jettySize=auto;html=1;entryX=0.5;entryY=0;entryDx=0;entryDy=0;" edge="1" parent="1" source="RuLZ8seGhE5P3lEb2IIF-7" target="RuLZ8seGhE5P3lEb2IIF-3">
          <mxGeometry relative="1" as="geometry" />
        </mxCell>
        <mxCell id="RuLZ8seGhE5P3lEb2IIF-7" value="MUX" style="rounded=0;whiteSpace=wrap;html=1;" vertex="1" parent="1">
          <mxGeometry x="280" y="660" width="80" height="40" as="geometry" />
        </mxCell>
        <mxCell id="RuLZ8seGhE5P3lEb2IIF-8" style="edgeStyle=orthogonalEdgeStyle;rounded=0;orthogonalLoop=1;jettySize=auto;html=1;entryX=0;entryY=0.5;entryDx=0;entryDy=0;" edge="1" parent="1" source="RuLZ8seGhE5P3lEb2IIF-10" target="RuLZ8seGhE5P3lEb2IIF-26">
          <mxGeometry relative="1" as="geometry">
            <mxPoint x="420" y="960" as="targetPoint" />
          </mxGeometry>
        </mxCell>
        <mxCell id="RuLZ8seGhE5P3lEb2IIF-9" style="edgeStyle=orthogonalEdgeStyle;rounded=0;orthogonalLoop=1;jettySize=auto;html=1;" edge="1" parent="1" source="RuLZ8seGhE5P3lEb2IIF-10">
          <mxGeometry relative="1" as="geometry">
            <mxPoint x="320" y="1060" as="targetPoint" />
          </mxGeometry>
        </mxCell>
        <mxCell id="RuLZ8seGhE5P3lEb2IIF-10" value="Systolic Array" style="whiteSpace=wrap;html=1;aspect=fixed;" vertex="1" parent="1">
          <mxGeometry x="280" y="920" width="80" height="80" as="geometry" />
        </mxCell>
        <mxCell id="RuLZ8seGhE5P3lEb2IIF-11" style="edgeStyle=orthogonalEdgeStyle;rounded=0;orthogonalLoop=1;jettySize=auto;html=1;entryX=0;entryY=0.5;entryDx=0;entryDy=0;" edge="1" parent="1" source="RuLZ8seGhE5P3lEb2IIF-12" target="RuLZ8seGhE5P3lEb2IIF-10">
          <mxGeometry relative="1" as="geometry" />
        </mxCell>
        <mxCell id="RuLZ8seGhE5P3lEb2IIF-12" value="MUX" style="rounded=0;whiteSpace=wrap;html=1;" vertex="1" parent="1">
          <mxGeometry x="220" y="920" width="40" height="80" as="geometry" />
        </mxCell>
        <mxCell id="RuLZ8seGhE5P3lEb2IIF-13" style="edgeStyle=orthogonalEdgeStyle;rounded=0;orthogonalLoop=1;jettySize=auto;html=1;entryX=0.5;entryY=0;entryDx=0;entryDy=0;" edge="1" parent="1" source="RuLZ8seGhE5P3lEb2IIF-14" target="RuLZ8seGhE5P3lEb2IIF-10">
          <mxGeometry relative="1" as="geometry" />
        </mxCell>
        <mxCell id="RuLZ8seGhE5P3lEb2IIF-14" value="MUX" style="rounded=0;whiteSpace=wrap;html=1;" vertex="1" parent="1">
          <mxGeometry x="280" y="860" width="80" height="40" as="geometry" />
        </mxCell>
        <mxCell id="RuLZ8seGhE5P3lEb2IIF-15" style="edgeStyle=orthogonalEdgeStyle;rounded=0;orthogonalLoop=1;jettySize=auto;html=1;" edge="1" parent="1" source="RuLZ8seGhE5P3lEb2IIF-17">
          <mxGeometry relative="1" as="geometry">
            <mxPoint x="630" y="760" as="targetPoint" />
          </mxGeometry>
        </mxCell>
        <mxCell id="RuLZ8seGhE5P3lEb2IIF-16" style="edgeStyle=orthogonalEdgeStyle;rounded=0;orthogonalLoop=1;jettySize=auto;html=1;" edge="1" parent="1" source="RuLZ8seGhE5P3lEb2IIF-17">
          <mxGeometry relative="1" as="geometry">
            <mxPoint x="525" y="860" as="targetPoint" />
          </mxGeometry>
        </mxCell>
        <mxCell id="RuLZ8seGhE5P3lEb2IIF-17" value="Systolic Array" style="whiteSpace=wrap;html=1;aspect=fixed;" vertex="1" parent="1">
          <mxGeometry x="485" y="720" width="80" height="80" as="geometry" />
        </mxCell>
        <mxCell id="RuLZ8seGhE5P3lEb2IIF-18" style="edgeStyle=orthogonalEdgeStyle;rounded=0;orthogonalLoop=1;jettySize=auto;html=1;entryX=0;entryY=0.5;entryDx=0;entryDy=0;" edge="1" parent="1" source="RuLZ8seGhE5P3lEb2IIF-19" target="RuLZ8seGhE5P3lEb2IIF-17">
          <mxGeometry relative="1" as="geometry" />
        </mxCell>
        <mxCell id="RuLZ8seGhE5P3lEb2IIF-19" value="MUX" style="rounded=0;whiteSpace=wrap;html=1;" vertex="1" parent="1">
          <mxGeometry x="425" y="720" width="40" height="80" as="geometry" />
        </mxCell>
        <mxCell id="RuLZ8seGhE5P3lEb2IIF-20" style="edgeStyle=orthogonalEdgeStyle;rounded=0;orthogonalLoop=1;jettySize=auto;html=1;entryX=0.5;entryY=0;entryDx=0;entryDy=0;" edge="1" parent="1" source="RuLZ8seGhE5P3lEb2IIF-21" target="RuLZ8seGhE5P3lEb2IIF-17">
          <mxGeometry relative="1" as="geometry" />
        </mxCell>
        <mxCell id="RuLZ8seGhE5P3lEb2IIF-21" value="MUX" style="rounded=0;whiteSpace=wrap;html=1;" vertex="1" parent="1">
          <mxGeometry x="485" y="660" width="80" height="40" as="geometry" />
        </mxCell>
        <mxCell id="RuLZ8seGhE5P3lEb2IIF-22" style="edgeStyle=orthogonalEdgeStyle;rounded=0;orthogonalLoop=1;jettySize=auto;html=1;" edge="1" parent="1" source="RuLZ8seGhE5P3lEb2IIF-24">
          <mxGeometry relative="1" as="geometry">
            <mxPoint x="625" y="960" as="targetPoint" />
          </mxGeometry>
        </mxCell>
        <mxCell id="RuLZ8seGhE5P3lEb2IIF-23" style="edgeStyle=orthogonalEdgeStyle;rounded=0;orthogonalLoop=1;jettySize=auto;html=1;" edge="1" parent="1" source="RuLZ8seGhE5P3lEb2IIF-24">
          <mxGeometry relative="1" as="geometry">
            <mxPoint x="525" y="1060" as="targetPoint" />
          </mxGeometry>
        </mxCell>
        <mxCell id="RuLZ8seGhE5P3lEb2IIF-24" value="Systolic Array" style="whiteSpace=wrap;html=1;aspect=fixed;" vertex="1" parent="1">
          <mxGeometry x="485" y="920" width="80" height="80" as="geometry" />
        </mxCell>
        <mxCell id="RuLZ8seGhE5P3lEb2IIF-25" style="edgeStyle=orthogonalEdgeStyle;rounded=0;orthogonalLoop=1;jettySize=auto;html=1;entryX=0;entryY=0.5;entryDx=0;entryDy=0;" edge="1" parent="1" source="RuLZ8seGhE5P3lEb2IIF-26" target="RuLZ8seGhE5P3lEb2IIF-24">
          <mxGeometry relative="1" as="geometry" />
        </mxCell>
        <mxCell id="RuLZ8seGhE5P3lEb2IIF-26" value="MUX" style="rounded=0;whiteSpace=wrap;html=1;" vertex="1" parent="1">
          <mxGeometry x="425" y="920" width="40" height="80" as="geometry" />
        </mxCell>
        <mxCell id="RuLZ8seGhE5P3lEb2IIF-27" style="edgeStyle=orthogonalEdgeStyle;rounded=0;orthogonalLoop=1;jettySize=auto;html=1;entryX=0.5;entryY=0;entryDx=0;entryDy=0;" edge="1" parent="1" source="RuLZ8seGhE5P3lEb2IIF-28" target="RuLZ8seGhE5P3lEb2IIF-24">
          <mxGeometry relative="1" as="geometry" />
        </mxCell>
        <mxCell id="RuLZ8seGhE5P3lEb2IIF-28" value="MUX" style="rounded=0;whiteSpace=wrap;html=1;" vertex="1" parent="1">
          <mxGeometry x="485" y="860" width="80" height="40" as="geometry" />
        </mxCell>
        <mxCell id="RuLZ8seGhE5P3lEb2IIF-29" style="edgeStyle=orthogonalEdgeStyle;rounded=0;orthogonalLoop=1;jettySize=auto;html=1;entryX=0;entryY=0.5;entryDx=0;entryDy=0;" edge="1" parent="1" source="RuLZ8seGhE5P3lEb2IIF-31" target="RuLZ8seGhE5P3lEb2IIF-47">
          <mxGeometry relative="1" as="geometry">
            <mxPoint x="830" y="360.0000000000001" as="targetPoint" />
          </mxGeometry>
        </mxCell>
        <mxCell id="RuLZ8seGhE5P3lEb2IIF-30" style="edgeStyle=orthogonalEdgeStyle;rounded=0;orthogonalLoop=1;jettySize=auto;html=1;" edge="1" parent="1" source="RuLZ8seGhE5P3lEb2IIF-31">
          <mxGeometry relative="1" as="geometry">
            <mxPoint x="730" y="460" as="targetPoint" />
          </mxGeometry>
        </mxCell>
        <mxCell id="RuLZ8seGhE5P3lEb2IIF-31" value="Systolic Array" style="whiteSpace=wrap;html=1;aspect=fixed;" vertex="1" parent="1">
          <mxGeometry x="690" y="320" width="80" height="80" as="geometry" />
        </mxCell>
        <mxCell id="RuLZ8seGhE5P3lEb2IIF-32" style="edgeStyle=orthogonalEdgeStyle;rounded=0;orthogonalLoop=1;jettySize=auto;html=1;entryX=0;entryY=0.5;entryDx=0;entryDy=0;" edge="1" parent="1" source="RuLZ8seGhE5P3lEb2IIF-33" target="RuLZ8seGhE5P3lEb2IIF-31">
          <mxGeometry relative="1" as="geometry" />
        </mxCell>
        <mxCell id="RuLZ8seGhE5P3lEb2IIF-33" value="MUX" style="rounded=0;whiteSpace=wrap;html=1;" vertex="1" parent="1">
          <mxGeometry x="630" y="320" width="40" height="80" as="geometry" />
        </mxCell>
        <mxCell id="RuLZ8seGhE5P3lEb2IIF-34" style="edgeStyle=orthogonalEdgeStyle;rounded=0;orthogonalLoop=1;jettySize=auto;html=1;entryX=0.5;entryY=0;entryDx=0;entryDy=0;" edge="1" parent="1" source="RuLZ8seGhE5P3lEb2IIF-35" target="RuLZ8seGhE5P3lEb2IIF-31">
          <mxGeometry relative="1" as="geometry" />
        </mxCell>
        <mxCell id="RuLZ8seGhE5P3lEb2IIF-35" value="MUX" style="rounded=0;whiteSpace=wrap;html=1;" vertex="1" parent="1">
          <mxGeometry x="690" y="260" width="80" height="40" as="geometry" />
        </mxCell>
        <mxCell id="RuLZ8seGhE5P3lEb2IIF-36" style="edgeStyle=orthogonalEdgeStyle;rounded=0;orthogonalLoop=1;jettySize=auto;html=1;entryX=0;entryY=0.5;entryDx=0;entryDy=0;" edge="1" parent="1" source="RuLZ8seGhE5P3lEb2IIF-38" target="RuLZ8seGhE5P3lEb2IIF-54">
          <mxGeometry relative="1" as="geometry">
            <mxPoint x="830" y="560" as="targetPoint" />
          </mxGeometry>
        </mxCell>
        <mxCell id="RuLZ8seGhE5P3lEb2IIF-37" style="edgeStyle=orthogonalEdgeStyle;rounded=0;orthogonalLoop=1;jettySize=auto;html=1;" edge="1" parent="1" source="RuLZ8seGhE5P3lEb2IIF-38">
          <mxGeometry relative="1" as="geometry">
            <mxPoint x="730" y="660" as="targetPoint" />
          </mxGeometry>
        </mxCell>
        <mxCell id="RuLZ8seGhE5P3lEb2IIF-38" value="Systolic Array" style="whiteSpace=wrap;html=1;aspect=fixed;" vertex="1" parent="1">
          <mxGeometry x="690" y="520" width="80" height="80" as="geometry" />
        </mxCell>
        <mxCell id="RuLZ8seGhE5P3lEb2IIF-39" style="edgeStyle=orthogonalEdgeStyle;rounded=0;orthogonalLoop=1;jettySize=auto;html=1;entryX=0;entryY=0.5;entryDx=0;entryDy=0;" edge="1" parent="1" source="RuLZ8seGhE5P3lEb2IIF-40" target="RuLZ8seGhE5P3lEb2IIF-38">
          <mxGeometry relative="1" as="geometry" />
        </mxCell>
        <mxCell id="RuLZ8seGhE5P3lEb2IIF-40" value="MUX" style="rounded=0;whiteSpace=wrap;html=1;" vertex="1" parent="1">
          <mxGeometry x="630" y="520" width="40" height="80" as="geometry" />
        </mxCell>
        <mxCell id="RuLZ8seGhE5P3lEb2IIF-41" style="edgeStyle=orthogonalEdgeStyle;rounded=0;orthogonalLoop=1;jettySize=auto;html=1;entryX=0.5;entryY=0;entryDx=0;entryDy=0;" edge="1" parent="1" source="RuLZ8seGhE5P3lEb2IIF-42" target="RuLZ8seGhE5P3lEb2IIF-38">
          <mxGeometry relative="1" as="geometry" />
        </mxCell>
        <mxCell id="RuLZ8seGhE5P3lEb2IIF-42" value="MUX" style="rounded=0;whiteSpace=wrap;html=1;" vertex="1" parent="1">
          <mxGeometry x="690" y="460" width="80" height="40" as="geometry" />
        </mxCell>
        <mxCell id="RuLZ8seGhE5P3lEb2IIF-43" style="edgeStyle=orthogonalEdgeStyle;rounded=0;orthogonalLoop=1;jettySize=auto;html=1;" edge="1" parent="1" source="RuLZ8seGhE5P3lEb2IIF-45">
          <mxGeometry relative="1" as="geometry">
            <mxPoint x="1040" y="360" as="targetPoint" />
          </mxGeometry>
        </mxCell>
        <mxCell id="RuLZ8seGhE5P3lEb2IIF-44" style="edgeStyle=orthogonalEdgeStyle;rounded=0;orthogonalLoop=1;jettySize=auto;html=1;" edge="1" parent="1" source="RuLZ8seGhE5P3lEb2IIF-45">
          <mxGeometry relative="1" as="geometry">
            <mxPoint x="935" y="460" as="targetPoint" />
          </mxGeometry>
        </mxCell>
        <mxCell id="RuLZ8seGhE5P3lEb2IIF-45" value="Systolic Array" style="whiteSpace=wrap;html=1;aspect=fixed;" vertex="1" parent="1">
          <mxGeometry x="895" y="320" width="80" height="80" as="geometry" />
        </mxCell>
        <mxCell id="RuLZ8seGhE5P3lEb2IIF-46" style="edgeStyle=orthogonalEdgeStyle;rounded=0;orthogonalLoop=1;jettySize=auto;html=1;entryX=0;entryY=0.5;entryDx=0;entryDy=0;" edge="1" parent="1" source="RuLZ8seGhE5P3lEb2IIF-47" target="RuLZ8seGhE5P3lEb2IIF-45">
          <mxGeometry relative="1" as="geometry" />
        </mxCell>
        <mxCell id="RuLZ8seGhE5P3lEb2IIF-47" value="MUX" style="rounded=0;whiteSpace=wrap;html=1;" vertex="1" parent="1">
          <mxGeometry x="835" y="320" width="40" height="80" as="geometry" />
        </mxCell>
        <mxCell id="RuLZ8seGhE5P3lEb2IIF-48" style="edgeStyle=orthogonalEdgeStyle;rounded=0;orthogonalLoop=1;jettySize=auto;html=1;entryX=0.5;entryY=0;entryDx=0;entryDy=0;" edge="1" parent="1" source="RuLZ8seGhE5P3lEb2IIF-49" target="RuLZ8seGhE5P3lEb2IIF-45">
          <mxGeometry relative="1" as="geometry" />
        </mxCell>
        <mxCell id="RuLZ8seGhE5P3lEb2IIF-49" value="MUX" style="rounded=0;whiteSpace=wrap;html=1;" vertex="1" parent="1">
          <mxGeometry x="895" y="260" width="80" height="40" as="geometry" />
        </mxCell>
        <mxCell id="RuLZ8seGhE5P3lEb2IIF-50" style="edgeStyle=orthogonalEdgeStyle;rounded=0;orthogonalLoop=1;jettySize=auto;html=1;" edge="1" parent="1" source="RuLZ8seGhE5P3lEb2IIF-52">
          <mxGeometry relative="1" as="geometry">
            <mxPoint x="1035" y="560" as="targetPoint" />
          </mxGeometry>
        </mxCell>
        <mxCell id="RuLZ8seGhE5P3lEb2IIF-51" style="edgeStyle=orthogonalEdgeStyle;rounded=0;orthogonalLoop=1;jettySize=auto;html=1;" edge="1" parent="1" source="RuLZ8seGhE5P3lEb2IIF-52">
          <mxGeometry relative="1" as="geometry">
            <mxPoint x="935" y="660" as="targetPoint" />
          </mxGeometry>
        </mxCell>
        <mxCell id="RuLZ8seGhE5P3lEb2IIF-52" value="Systolic Array" style="whiteSpace=wrap;html=1;aspect=fixed;" vertex="1" parent="1">
          <mxGeometry x="895" y="520" width="80" height="80" as="geometry" />
        </mxCell>
        <mxCell id="RuLZ8seGhE5P3lEb2IIF-53" style="edgeStyle=orthogonalEdgeStyle;rounded=0;orthogonalLoop=1;jettySize=auto;html=1;entryX=0;entryY=0.5;entryDx=0;entryDy=0;" edge="1" parent="1" source="RuLZ8seGhE5P3lEb2IIF-54" target="RuLZ8seGhE5P3lEb2IIF-52">
          <mxGeometry relative="1" as="geometry" />
        </mxCell>
        <mxCell id="RuLZ8seGhE5P3lEb2IIF-54" value="MUX" style="rounded=0;whiteSpace=wrap;html=1;" vertex="1" parent="1">
          <mxGeometry x="835" y="520" width="40" height="80" as="geometry" />
        </mxCell>
        <mxCell id="RuLZ8seGhE5P3lEb2IIF-55" style="edgeStyle=orthogonalEdgeStyle;rounded=0;orthogonalLoop=1;jettySize=auto;html=1;entryX=0.5;entryY=0;entryDx=0;entryDy=0;" edge="1" parent="1" source="RuLZ8seGhE5P3lEb2IIF-56" target="RuLZ8seGhE5P3lEb2IIF-52">
          <mxGeometry relative="1" as="geometry" />
        </mxCell>
        <mxCell id="RuLZ8seGhE5P3lEb2IIF-56" value="MUX" style="rounded=0;whiteSpace=wrap;html=1;" vertex="1" parent="1">
          <mxGeometry x="895" y="460" width="80" height="40" as="geometry" />
        </mxCell>
        <mxCell id="RuLZ8seGhE5P3lEb2IIF-57" style="edgeStyle=orthogonalEdgeStyle;rounded=0;orthogonalLoop=1;jettySize=auto;html=1;entryX=0;entryY=0.5;entryDx=0;entryDy=0;" edge="1" parent="1" source="RuLZ8seGhE5P3lEb2IIF-59" target="RuLZ8seGhE5P3lEb2IIF-75">
          <mxGeometry relative="1" as="geometry">
            <mxPoint x="830" y="760.0000000000001" as="targetPoint" />
          </mxGeometry>
        </mxCell>
        <mxCell id="RuLZ8seGhE5P3lEb2IIF-58" style="edgeStyle=orthogonalEdgeStyle;rounded=0;orthogonalLoop=1;jettySize=auto;html=1;" edge="1" parent="1" source="RuLZ8seGhE5P3lEb2IIF-59">
          <mxGeometry relative="1" as="geometry">
            <mxPoint x="730" y="860" as="targetPoint" />
          </mxGeometry>
        </mxCell>
        <mxCell id="RuLZ8seGhE5P3lEb2IIF-59" value="Systolic Array" style="whiteSpace=wrap;html=1;aspect=fixed;" vertex="1" parent="1">
          <mxGeometry x="690" y="720" width="80" height="80" as="geometry" />
        </mxCell>
        <mxCell id="RuLZ8seGhE5P3lEb2IIF-60" style="edgeStyle=orthogonalEdgeStyle;rounded=0;orthogonalLoop=1;jettySize=auto;html=1;entryX=0;entryY=0.5;entryDx=0;entryDy=0;" edge="1" parent="1" source="RuLZ8seGhE5P3lEb2IIF-61" target="RuLZ8seGhE5P3lEb2IIF-59">
          <mxGeometry relative="1" as="geometry" />
        </mxCell>
        <mxCell id="RuLZ8seGhE5P3lEb2IIF-61" value="MUX" style="rounded=0;whiteSpace=wrap;html=1;" vertex="1" parent="1">
          <mxGeometry x="630" y="720" width="40" height="80" as="geometry" />
        </mxCell>
        <mxCell id="RuLZ8seGhE5P3lEb2IIF-62" style="edgeStyle=orthogonalEdgeStyle;rounded=0;orthogonalLoop=1;jettySize=auto;html=1;entryX=0.5;entryY=0;entryDx=0;entryDy=0;" edge="1" parent="1" source="RuLZ8seGhE5P3lEb2IIF-63" target="RuLZ8seGhE5P3lEb2IIF-59">
          <mxGeometry relative="1" as="geometry" />
        </mxCell>
        <mxCell id="RuLZ8seGhE5P3lEb2IIF-63" value="MUX" style="rounded=0;whiteSpace=wrap;html=1;" vertex="1" parent="1">
          <mxGeometry x="690" y="660" width="80" height="40" as="geometry" />
        </mxCell>
        <mxCell id="RuLZ8seGhE5P3lEb2IIF-64" style="edgeStyle=orthogonalEdgeStyle;rounded=0;orthogonalLoop=1;jettySize=auto;html=1;entryX=0;entryY=0.5;entryDx=0;entryDy=0;" edge="1" parent="1" source="RuLZ8seGhE5P3lEb2IIF-66" target="RuLZ8seGhE5P3lEb2IIF-82">
          <mxGeometry relative="1" as="geometry">
            <mxPoint x="830" y="960" as="targetPoint" />
          </mxGeometry>
        </mxCell>
        <mxCell id="RuLZ8seGhE5P3lEb2IIF-65" style="edgeStyle=orthogonalEdgeStyle;rounded=0;orthogonalLoop=1;jettySize=auto;html=1;" edge="1" parent="1" source="RuLZ8seGhE5P3lEb2IIF-66">
          <mxGeometry relative="1" as="geometry">
            <mxPoint x="730" y="1060" as="targetPoint" />
          </mxGeometry>
        </mxCell>
        <mxCell id="RuLZ8seGhE5P3lEb2IIF-66" value="Systolic Array" style="whiteSpace=wrap;html=1;aspect=fixed;" vertex="1" parent="1">
          <mxGeometry x="690" y="920" width="80" height="80" as="geometry" />
        </mxCell>
        <mxCell id="RuLZ8seGhE5P3lEb2IIF-67" style="edgeStyle=orthogonalEdgeStyle;rounded=0;orthogonalLoop=1;jettySize=auto;html=1;entryX=0;entryY=0.5;entryDx=0;entryDy=0;" edge="1" parent="1" source="RuLZ8seGhE5P3lEb2IIF-68" target="RuLZ8seGhE5P3lEb2IIF-66">
          <mxGeometry relative="1" as="geometry" />
        </mxCell>
        <mxCell id="RuLZ8seGhE5P3lEb2IIF-68" value="MUX" style="rounded=0;whiteSpace=wrap;html=1;" vertex="1" parent="1">
          <mxGeometry x="630" y="920" width="40" height="80" as="geometry" />
        </mxCell>
        <mxCell id="RuLZ8seGhE5P3lEb2IIF-69" style="edgeStyle=orthogonalEdgeStyle;rounded=0;orthogonalLoop=1;jettySize=auto;html=1;entryX=0.5;entryY=0;entryDx=0;entryDy=0;" edge="1" parent="1" source="RuLZ8seGhE5P3lEb2IIF-70" target="RuLZ8seGhE5P3lEb2IIF-66">
          <mxGeometry relative="1" as="geometry" />
        </mxCell>
        <mxCell id="RuLZ8seGhE5P3lEb2IIF-70" value="MUX" style="rounded=0;whiteSpace=wrap;html=1;" vertex="1" parent="1">
          <mxGeometry x="690" y="860" width="80" height="40" as="geometry" />
        </mxCell>
        <mxCell id="RuLZ8seGhE5P3lEb2IIF-71" style="edgeStyle=orthogonalEdgeStyle;rounded=0;orthogonalLoop=1;jettySize=auto;html=1;" edge="1" parent="1" source="RuLZ8seGhE5P3lEb2IIF-73">
          <mxGeometry relative="1" as="geometry">
            <mxPoint x="1040" y="760" as="targetPoint" />
          </mxGeometry>
        </mxCell>
        <mxCell id="RuLZ8seGhE5P3lEb2IIF-72" style="edgeStyle=orthogonalEdgeStyle;rounded=0;orthogonalLoop=1;jettySize=auto;html=1;" edge="1" parent="1" source="RuLZ8seGhE5P3lEb2IIF-73">
          <mxGeometry relative="1" as="geometry">
            <mxPoint x="935" y="860" as="targetPoint" />
          </mxGeometry>
        </mxCell>
        <mxCell id="RuLZ8seGhE5P3lEb2IIF-73" value="Systolic Array" style="whiteSpace=wrap;html=1;aspect=fixed;" vertex="1" parent="1">
          <mxGeometry x="895" y="720" width="80" height="80" as="geometry" />
        </mxCell>
        <mxCell id="RuLZ8seGhE5P3lEb2IIF-74" style="edgeStyle=orthogonalEdgeStyle;rounded=0;orthogonalLoop=1;jettySize=auto;html=1;entryX=0;entryY=0.5;entryDx=0;entryDy=0;" edge="1" parent="1" source="RuLZ8seGhE5P3lEb2IIF-75" target="RuLZ8seGhE5P3lEb2IIF-73">
          <mxGeometry relative="1" as="geometry" />
        </mxCell>
        <mxCell id="RuLZ8seGhE5P3lEb2IIF-75" value="MUX" style="rounded=0;whiteSpace=wrap;html=1;" vertex="1" parent="1">
          <mxGeometry x="835" y="720" width="40" height="80" as="geometry" />
        </mxCell>
        <mxCell id="RuLZ8seGhE5P3lEb2IIF-76" style="edgeStyle=orthogonalEdgeStyle;rounded=0;orthogonalLoop=1;jettySize=auto;html=1;entryX=0.5;entryY=0;entryDx=0;entryDy=0;" edge="1" parent="1" source="RuLZ8seGhE5P3lEb2IIF-77" target="RuLZ8seGhE5P3lEb2IIF-73">
          <mxGeometry relative="1" as="geometry" />
        </mxCell>
        <mxCell id="RuLZ8seGhE5P3lEb2IIF-77" value="MUX" style="rounded=0;whiteSpace=wrap;html=1;" vertex="1" parent="1">
          <mxGeometry x="895" y="660" width="80" height="40" as="geometry" />
        </mxCell>
        <mxCell id="RuLZ8seGhE5P3lEb2IIF-78" style="edgeStyle=orthogonalEdgeStyle;rounded=0;orthogonalLoop=1;jettySize=auto;html=1;" edge="1" parent="1" source="RuLZ8seGhE5P3lEb2IIF-80">
          <mxGeometry relative="1" as="geometry">
            <mxPoint x="1035" y="960" as="targetPoint" />
          </mxGeometry>
        </mxCell>
        <mxCell id="RuLZ8seGhE5P3lEb2IIF-79" style="edgeStyle=orthogonalEdgeStyle;rounded=0;orthogonalLoop=1;jettySize=auto;html=1;" edge="1" parent="1" source="RuLZ8seGhE5P3lEb2IIF-80">
          <mxGeometry relative="1" as="geometry">
            <mxPoint x="935" y="1060" as="targetPoint" />
          </mxGeometry>
        </mxCell>
        <mxCell id="RuLZ8seGhE5P3lEb2IIF-80" value="Systolic Array" style="whiteSpace=wrap;html=1;aspect=fixed;" vertex="1" parent="1">
          <mxGeometry x="895" y="920" width="80" height="80" as="geometry" />
        </mxCell>
        <mxCell id="RuLZ8seGhE5P3lEb2IIF-81" style="edgeStyle=orthogonalEdgeStyle;rounded=0;orthogonalLoop=1;jettySize=auto;html=1;entryX=0;entryY=0.5;entryDx=0;entryDy=0;" edge="1" parent="1" source="RuLZ8seGhE5P3lEb2IIF-82" target="RuLZ8seGhE5P3lEb2IIF-80">
          <mxGeometry relative="1" as="geometry" />
        </mxCell>
        <mxCell id="RuLZ8seGhE5P3lEb2IIF-82" value="MUX" style="rounded=0;whiteSpace=wrap;html=1;" vertex="1" parent="1">
          <mxGeometry x="835" y="920" width="40" height="80" as="geometry" />
        </mxCell>
        <mxCell id="RuLZ8seGhE5P3lEb2IIF-83" style="edgeStyle=orthogonalEdgeStyle;rounded=0;orthogonalLoop=1;jettySize=auto;html=1;entryX=0.5;entryY=0;entryDx=0;entryDy=0;" edge="1" parent="1" source="RuLZ8seGhE5P3lEb2IIF-84" target="RuLZ8seGhE5P3lEb2IIF-80">
          <mxGeometry relative="1" as="geometry" />
        </mxCell>
        <mxCell id="RuLZ8seGhE5P3lEb2IIF-84" value="MUX" style="rounded=0;whiteSpace=wrap;html=1;" vertex="1" parent="1">
          <mxGeometry x="895" y="860" width="80" height="40" as="geometry" />
        </mxCell>
      </root>
    </mxGraphModel>
  </diagram>
</mxfile>
